/* XPM */
static char * image[] = 
{
"89 53 71 2",
"AA c #263646",
"AB c #293B4C",
"AC c #283C54",
"AD c #283F5B",
"AE c #2A415C",
"AF c #2A4261",
"AG c #2B4669",
"AH c #2D4B76",
"AI c #334A63",
"AJ c #395372",
"AK c #2F5285",
"AL c #3E5D84",
"AM c #315C9A",
"AN c #38619B",
"AO c #3465AE",
"AP c #3F68A0",
"AQ c #3566B0",
"AR c #3768B0",
"AS c #3A6BB2",
"AT c #3F70B4",
"AU c #4D6B8B",
"AV c #416592",
"AW c #436A9E",
"AX c #416EAB",
"AY c #406FB5",
"AZ c #4272B6",
"BA c #4676B8",
"BB c #4876B8",
"BC c #4B7ABA",
"BD c #5B7EA4",
"BE c #527EBC",
"BF c #5281BE",
"BG c #658EBC",
"BH c #6891BD",
"BI c #5584C0",
"BJ c #5885C0",
"BK c #5C8AC3",
"BL c #638DC4",
"BM c #698DC4",
"BN c #6290C6",
"BO c #6593C8",
"BP c #6C92C7",
"BQ c #6996CA",
"BR c #6C99CC",
"BS c #719ECE",
"BT c #7A9DC3",
"BU c #7C9ECC",
"BV c #76A3D3",
"BW c #AEB0B2",
"BX c #83A1CE",
"BY c #82A3D0",
"BZ c #88A8D2",
"CA c #99B2D7",
"CB c #9CB5D8",
"CC c #A1BADC",
"CD c #B2C5E1",
"CE c #B7C9E2",
"CF c #B9CCE5",
"CG c #C9D6EA",
"CH c #CBD8EB",
"CI c #D0DEEE",
"CJ c #D5E1F0",
"CK c #DDE5F1",
"CL c #E4E5E5",
"CM c #E4EBF4",
"CN c #ECF1F7",
"CO c #EEF2F9",
"CP c #F1F4FA",
"CQ c #FEFEFE",
"CR c #000000",
"CS c #FFFFFF",
"CQCQCQCQCQCQCQCQCQCQCQCQCQCQCQCQCQCQCQCQCQCQCQCQCQCQCQCQCQCQCQCQCQCQCQCQCQCQCQCQCQBEASCNCQCQCQCQCQCQCQCQCQCQCQCQCQCQCQCQCQCQCQCQCQCQCQCQCQCQCQCQCQCQCQCQCQCQCQCQCQCQCQCQCQCQCQCQCQ",
"CQCQCQCQCQCQCQCQCQCQCQCQCQCQCQCQCQCQCQCQCQCQCQCQCQCQCQCQCQCQCQCQCQCQCQCQCQCQCQCQBUAOAOASCKCQCQCQCQCQCQCQCQCQCQCQCQCQCQCQCQCQCQCQCQCQCQCQCQCQCQCQCQCQCQCQCQCQCQCQCQCQCQCQCQCQCQCQCQ",
"CQCQCQCQCQCQCQCQCQCQCQCQCQCQCQCQCQCQCQCQCQCQCQCQCQCQCQCQCQCQCQCQCQCQCQCQCQCQCQCHAQBIBCAOAQCGCQCQCQCQCQCQCQCQCQCQCQCQCQCQCQCQCQCQCQCQCQCQCQCQCQCQCQCQCQCQCQCQCQCQCQCQCQCQCQCQCQCQCQ",
"CQCQCQCQCQCQCQCQCQCQCQCQCQCQCQCQCQCQCQCQCQCQCQCQCQCQCQCQCQCQCQCQCQCQCQCQCQCQCQASASBVBRASAOAOCDCQCQCQCQCQCQCQCQCQCQCQCQCQCQCQCQCQCQCQCQCQCQCQCQCQCQCQCQCQCQCQCQCQCQCQCQCQCQCQCQCQCQ",
"CQCQCQCQCQCQCQCQCQCQCQCQCQCQCQCQCQCQCQCQCQCQCQCQCQCQCQCQCQCQCQCQCQCQCQCQCQCQBLAQBRBSBVBRAOASAOCBCQCQCQCQCQCQCQCQCQCQCQCQCQCQCQCQCQCQCQCQCQCQCQCQCQCQCQCQCQCQCQCQCQCQCQCQCQCQCQCQCQ",
"CQCQCQCQCQCQCQCQCQCQCQCQCQCQCQCQCQCQCQCQCQCQCQCQCQCQCQCQCQCQCQCQCQCQCQCQCQCDAOBKBSBSBSBSBFAOBCAOBUCQCQCQCQCQCQCQCQCQCQCQCQCQCQCQCQCQCQCQCQCQCQCQCQCQCQCQCQCQCQCQCQCQCQCQCQCQCQCQCQ",
"CQCQCQCQCQCQCQCQCQCQCQCQCQCQCQCQCQCQCQCQCQCQCQCQCQCQCQCQCQCQCQCQCQCQCQCQCPASAZBSBSBSBSBSBSASAQBKAQBLCQCQCQCQCQCQCQCQCQCQCQCQCQCQCQCQCQCQCQCQCQCQCQCQCQCQCQCQCQCQCQCQCQCQCQCQCQCQCQ",
"CQCQCQCQCQCQCQCQCQCQCQCQCQCQCQCQCQCQCQCQCQCQCQCQCQCQCQCQCQCQCQCQCQCQCQCQBFAQBSBSBVBSBSBVBSBSAQAZBQARBECQCQCQCQCQCQCQCQCQCQCQCQCQCQCQCQCQCQCQCQCQCQCQCQCQCQCQCQCQCQCQCQCQCQCQCQCQCQ",
"CQCQCQCQCQCQCQCQCQCQCQCQCQCQCQCQCQCQCQCQCQCQCQCQCQCQCQCQCQCQCQCQCQCQCQCBAOBLBSBSBSBSBSBSBSBSBKAQBJBRARAYCOCQCQCQCQCQCQCQCQCQCQCQCQCQCQCQCQCQCQCQCQCQCQCQCQCQCQCQCQCQCQCQCQCQCQCQCQ",
"CQCQCQCQCQCQCQCQCQCQCQCQCQCQCQCQCQCQCQCQCQCQCQCQCQCQCQCQCQCQCQCQCQCQCMAQBCBSBVBRBVBSBSBSBSBVBSAZAQBRBSASASCMCQCQCQCQCQCQCQCQCQCQCQCQCQCQCQCQCQCQCQCQCQCQCQCQCQCQCQCQCQCQCQCQCQCQCQ",
"CQCQCQCQCQCQCQCQCQCQCQCQCQCQCQCQCQCQCQCQCQCQCQCQCQCQCQCQCQCQCQCQCQCQBAASBSBSBSBSBSBSBSBVBRBSBSBSARASBSBSAZAOCGCQCQCQCQCQCQCQCQCQCQCQCQCQCQCQCQCQCQCQCQCQCQCQCQCQCQCQCQCQCQCQCQCQCQ",
"CQCQCQCQCQCQCQCQCQCQCQCQCQCQCQCQCQCQCQCQCQCQCQCQCQCQCQCQCQCQCQCQCQBYAQBOBSBSBVBRBVBSBSBSBSBVBSBSBOAQBFBSBSBCARCDCQCQCQCQCQCQCQCQCQCQCQCQCQCQCQCQCQCQCQCQCQCQCQCQCQCQCQCQCQCQCQCQCQ",
"CQCQCQCQCQCQCQCQCQCQCQCQCQCQCQCQCQCQCQCQCQCQCQCQCQCQCQCQCQCQCQCQCIAQBEBSBSBSBSBSBSBSBSBSBSBSBSBSBSBCAOBOBSBSBEAQCBCQCQCQCQCQCQCQCQCQCQCQCQCQCQCQCQCQCQCQCQCQCQCQCQCQCQCQCQCQCQCQCQ",
"CQCQCQCQCQCQCQCQCQCQCQCQCQCQCQCQCQCQCQCQCQCQCQCQCQCQCQCQCQCQCQCQASASBSBSBSBVBRBVBSBSBSBVBSBSBSBVBSBSASASBSBSBSBJAQBXCQCQCQCQCQCQCQCQCQCQCQCQCQCQCQCQCQCQCQCQCQCQCQCQCQCQCQCQCQCQCQ",
"CQCQCQCQCQCQCQCQCQCQCQCQCQCQCQCQCQCQCQCQCQCQCQCQCQCQCQCQCQCQCQBQAQBRBSBVBSBSBSBSBSBSBSBSBSBSBSBSBSBSBRAOBCBSBVBSBKAQBMCQCQCQCQCQCQCQCQCQCQCQCQCQCQCQCQCQCQCQCQCQCQCQCQCQCQCQCQCQCQ",
"CQCQCQCQCQCQCQCQCQCQCQCQCQCQCQCQCQCQCQCQCQCQCQCQCQCQCQCQCQCQCFAOBJBSBSBSBSBSBSBSBSBSBSBSBVBSBSBSBSBSBSBFAOBLBRBVBSBOARBECQCQCQCQCQCQCQCQCQCQCQCQCQCQCQCQCQCQCQCQCQCQCQCQCQCQCQCQCQ",
"CQCQCQCQCQCQCQCQCQCQCQCQCQCQCQCQCQCQCQCQCQCQCQCQCQCQCQCQCQCPASAZBSBSBSBSBSBSBVBSBSBVBSBSBSBSBSBVBSBSBSBSASARBSBSBSBSBRASAZCOCQCQCQCQCQCQCQCQCQCQCQCQCQCQCQCQCQCQCQCQCQCQCQCQCQCQCQ",
"CQCQCQCQCQCQCQCQCQCQCQCQCQCQCQCQCQCQCQCQCQCQCQCQCQCQCQCQCQBJAQBSBSBSBSBSBVBSBSBSBSBSBSBSBSBVBRBSBSBSBVBSBSAQBABRBVBSBSBRASASCMCQCQCQCQCQCQCQCQCQCQCQCQCQCQCQCQCQCQCQCQCQCQCQCQCQCQ",
"CQCQCQCQCQCQCQCQCQCQCQCQCQCQCQCQCQCQCQCQCQCQCQCQCQCQCQCQCCAOBLBSBSBSBSBSBSBSBSBSBSBSBSBSBSBSBSBSBSBSBSBSBSBKAQBJBSBSBSBSBSAZARCHCQCQCQCQCQCQCQCQCQCQCQCQCQCQCQCQCQCQCQCQCQCQCQCQCQ",
"CQCQCQCQCQCQCQCQCQCQCQCQCQCQCQCQCQCQCQCQCQCQCQCQCQCQCQCNAQBABSBSBSBSBSBSBSBSBSBSBSBVBSBSBSBSBSBVBSBSBSBSBSBSATAQBRBSBSBSBSBSBCAQCFCQCQCQCQCQCQCQCQCQCQCQCQCQCQCQCQCQCQCQCQCQCQCQCQ",
"CQCQCQCQCQCQCQCQCQCQCQCQCQCQCQCQCQCQCQCQCQCQCQCQCQCQCQBCASBSBSBSBSBSBVBSBSBVBSBSBSBSBSBSBVBSBSBSBSBSBVBSBSBSBSARASBVBSBSBVBSBSBEAOCBCQCQCQCQCQCQCQCQCQCQCQCQCQCQCQCQCQCQCQCQCQCQCQ",
"CQCQCQCQCQCQCQCQCQCQCQCQCQCQCQCQCQCQCQCQCQCQCQCQCQCQBZAOBOBSBSBVBSBSBSBSBSBSBSBSBSBSBSBSBSBSBSBSBSBSBSBSBSBVBSBOAQBFBSBSBSBSBSBSBIAOBYCQCQCQCQCQCQCQCQCQCQCQCQCQCQCQCQCQCQCQCQCQCQ",
"CQCQCQCQCQCQCQCQCQCQCQCQCQCQCQCQCQCQCQCQCQCQCQCQCQCJAQBCBSBSBSBSBSBSBSBSBSBSBVBSBSBVBSBSBSBSBSBVBSBSBSBVBRBSBSBSBAAQBQBSBSBSBVBSBSBLAQBMCQCQCQCQCQCQCQCQCQCQCQCQCQCQCQCQCQCQCQCQCQ",
"CQCQCQCQCQCQCQCQCQCQCQCQCQCQCQCQCQCQCQCQCQCQCQCQCQAZASBSBVBSBSBSBSBSBVBSBSBSBSBSBSBSBSBSBVBSBSBSBSBSBSBSBSBVBSBSBVARASBSBVBSBSBSBSBSBOAQBFCQCQCQCQCQCQCQCQCQCQCQCQCQCQCQCQCQCQCQCQ",
"CQCQCQCQCQCQCQCQCQCQCQCQCQCQCQCQCQCQCQCQCQCQCQCQBRAOBQBSBSBSBSBVBSBSBSBSBSBSBSBSBVBSBSBSBSBSBSBSBSBVBSBSBSBSBSBSBSBQAQBCBSBSBSBSBSBSBSBRASAZCPCQCQCQCQCQCQCQCQCQCQCQCQCQCQCQCQCQCQ",
"CQCQCQCQCQCQCQCQCQCQCQCQCQCQCQCQCQAAAAAAAAAAAAAJARBJBSBSBSBSBSBSBSBSBSBSBVBSBSBSBSBSBSBSBSBSBSBVBSBSBSBSBSBSBSBSBSBVBCAOBLBSBSBSBVBSBSBSBRAXAOACAAAAAAAAAAAAAAAAAAAAAAAAAAAAAAAAAA",
"CQCQCQCQCQCQCQCQCQCQCQCQCQCQCQCQAAAAAAAAAAAAACASAYBSBSBSBVBSBSBSBSBSBVBSBSBSBSBSBSBVBSBSBVBSBSBSBSBSBSBSBVBSBSBVBSBSBSASARBRBVBSBSBSBSBSBSBSASAOAEAAAAAAAAAAAAAAAAAAAAAAAAAAAAAABV",
"CQCQCQCQCQCQCQCQCQCQCQCQCQCQCQAAAAAAAAAAAAAAAWARBRBSBSBSBSBSBSBVBSBSBSBSBSBSBSBVBSBSBSBSBSBSBSBSBSBSBSBSBSBSBSBSBSBSBSBRARAZBSBSBSBSBSBSBSBSBVAZAOAGAAAAAAAAAAAAAAAAAAAAAAAAAABVBV",
"CQCQCQCQCQCQCQCQCQCQCQCQCQCQAAAAAAAAAAAAAAALAQBKBSBVBSBSBSBSBSBSBSBSBSBSBSBSBSBSBSBSBSBSBSBSBSBSBSBSBVBSBSBSBSBSBSBSBSBVBJAOBKBSBSBSBVBSBSBSBSBSBCAQAHAAAAAAAAAAAAAAAAAAAAAABVBVBV",
"CQCQCQCQCQCQCQCQCQCQCQCQCQAAAAAAAAAAAAAAAEAXBABSBSBSBSBSBVBSBSBSBSBSBSBSBSBVBSBSBSBSBSBVBSBSBVBSBSBSBSBSBSBVBSBSBVBSBSBSBSATAQBRBSBSBSBSBSBVBSBSBVBFAOAKAAAAAAAAAAAAAAAAAABVBVBVBV",
"CQCQCQCQCQCQCQCQCQCQCQCQAAAAAAAAAAAAAAAAAXAQBSBSBSBSBSBSBSBSBSBVBSBSBVBSBSBSBSBSBVBSBSBSBSBSBSBSBSBSBSBSBSBSBSBSBSBSBSBSBSBSAQASBVBSBSBSBSBSBSBSBSBSBKAOAFAAAAAAAAAAAAAABVBVBVBVBV",
"CQCQCQCQCQCQCQCQCQCQCQAAAAAAAAAAAAAAAAAVAQBOBSBSBSBVBSBSBSBSBSBSBSBSBSBSBSBSBSBSBSBSBSBSBSBSBSBSBVBSBSBVBSBSBSBSBSBSBSBVBSBSBOAOBFBSBSBVBSBSBSBVBSBSANAOADAAAAAAAAAAAABVBVBVBVBVBV",
"CQCQCQCQCQCQCQCQCQCQAAAAAAAAAAAAAAAAAIAQBCBRBVBRBVBRBVBSBSBVBSBSBSBSBSBSBSBVBSBSBSBSBSBVBSBSBVBSBSBSBSBSBSBSBVBSBSBVBSBSBSBSBSBAAOBQBSBSBSBSBSBSBSANAOAEAAAAAAAAAAAABVBVBVBVBVBVBV",
"CQCQCQCQCQCQCQCQCQAAAAAAAAAAAAAAAAABAXARBVBSBSBSBSBSBSBSBSBSBSBSBVBSBSBVBSBSBSBSBVBSBSBSBSBSBSBSBSBSBSBSBSBSBSBSBSBSBSBSBSBSBSBSASASBSBSBSBVBSBSANAOAEAAAAAAAAAAAABVBVBVBVBVBVBVBV",
"CQCQCQCQCQCQCQCQAAAAAAAAAAAAAAAAAAAWAOBOBSBSBSBVBRBVBSBSBSBSBSBSBSBSBSBSBSBSBSBSBSBSBSBSBSBSBSBSBSBSBSBVBSBSBSBSBSBSBSBSBSBVBSBSBQAQBCBSBSBSBSANAOADAAAAAAAAAAAABVBVBVBVBVBVBVBVBV",
"CQCQCQCQCQCQCQAAAAAAAAAAAAAAAAAAAJAOBFBSBVBSBSBSBSBSBSBSBVBSBSBSBSBSBSBSBSBSBSBSBSBSBSBVBSBSBVBSBSBVBSBSBSBSBVBSBSBVBSBSBSBSBSBSBSBCAQBOBSBSANAOADAAAAAAAAAAAABVBVBVBVBVBVBVBVBVBV",
"CQCQCQCQCQCQAAAAAAAAAAAAAAAAAAABAXASBSBSBSBSBSBSBSBSBSBSBSBSBSBVBSBSBVBSBSBVBSBSBVBSBSBSBSBSBSBSBSBSBSBSBSBSBSBSBSBSBSBSBSBSBSBVBSBSASAOBSAMAOADAAAAAAAAAAAABVBVBVBVBVBVBVBVBVBVBV",
"CQCQCQCQCQAAAAAAAAAAAAAAAAAAAAAPAQBGBHBHBHBHBHBHBHBHBHBHBHBHBHBGBHBHBGBHBHBGBHBHBGBHBHBHBHBHBHBHBHBHBHBHBHBHBHBHBHBHBHBHBHBHBHBHBHBHBGAOAOAOAEAAAAAAAAAAAABVBVBVBVBVBVBVBVBVBVBVCL",
"CQCQCQCQAAAAAAAAAAAAAAAAAAAAAAAMAOAOAOAQAOAQAOAQAOAQAOAOAOAOAOAOAOAOAOAOAOAOAOAOAOAOAOAOAOAOAOAOAOAOAOAOAOAOAOAOAOAOAOAOAOAOAOAOAOAOAOAOAOAEAAAAAAAAAAAABVBVBVBVBVBVBVBVBVBVBVCLCQ",
"CQCQBWAAAAAAAAAAAAAAAAAAAAAAAAAAAAAAAAAAAAAAAAAAAAAAAAAAAAAAAAAAAAAAAAAAAAAAAAAAAAAAAAAAAAAAAAAAAAAAAAAAAAAAAAAAAAAAAAAAAAAAAAAAAAAAAAAAAAAAAAAAAAAABDBVBVBVBVBVBVBVBVBVBVBTCQCQCQ",
"CQBWAAAAAAAAAAAAAAAAAAAAAAAAAAAAAAAAAAAAAAAAAAAAAAAAAAAAAAAAAAAAAAAAAAAAAAAAAAAAAAAAAAAAAAAAAAAAAAAAAAAAAAAAAAAAAAAAAAAAAAAAAAAAAAAAAAAAAAAAAAAAAABDBVBVBVBVBVBVBVBVBVBVBTCQCQCQCQ",
"BWAAAAAAAAAAAAAAAAAAAAAAAAAAAAAAAAAAAAAAAAAAAAAAAAAAAAAAAAAAAAAAAAAAAAAAAAAAAAAAAAAAAAAAAAAAAAAAAAAAAAAAAAAAAAAAAAAAAAAAAAAAAAAAAAAAAAAAAAAAAAAABDBVBVBVBVBVBVBVBVBVBVBTCQCQCQCQCQ",
"AUAUAUAUAUAUAUAUAUAUAUAUAUAUAUAUAUAUAUAUAUAUAUAUAUAUAUAUAUAUAUAUAUAUAUAUAUAUAUAUAUAUAUAUAUAUAUAUAUAUAUAUAUAUAUAUAUAUAUAUAUAUAUAUAUAUAUAUAUAUAUAUBVBVBVBVBVBVBVBVBVBVBTCQCQCQCQCQCQ",
"AUAUAUAUAUAUAUAUAUAUAUAUAUAUAUAUAUAUAUAUAUAUAUAUAUAUAUAUAUAUAUAUAUAUAUAUAUAUAUAUAUAUAUAUAUAUAUAUAUAUAUAUAUAUAUAUAUAUAUAUAUAUAUAUAUAUAUAUAUAUAUAUBVBVBVBVBVBVBVBVBVBTCQCQCQCQCQCQCQ",
"AUAUAUAUAUAUAUAUAUAUAUAUAUAUAUAUAUAUAUAUAUAUAUAUAUAUAUAUAUAUAUAUAUAUAUAUAUAUAUAUAUAUAUAUAUAUAUAUAUAUAUAUAUAUAUAUAUAUAUAUAUAUAUAUAUAUAUAUAUAUAUAUBVBVBVBVBVBVBVBVBTCQCQCQCQCQCQCQCQ",
"AUAUAUAUAUAUAUAUAUAUAUAUAUAUAUAUAUAUAUAUAUAUAUAUAUAUAUAUAUAUAUAUAUAUAUAUAUAUAUAUAUAUAUAUAUAUAUAUAUAUAUAUAUAUAUAUAUAUAUAUAUAUAUAUAUAUAUAUAUAUAUAUBVBVBVBVBVBVBVBTCQCQCQCQCQCQCQCQCQ",
"AUAUAUAUAUAUAUAUAUAUAUAUAUAUAUAUAUAUAUAUAUAUAUAUAUAUAUAUAUAUAUAUAUAUAUAUAUAUAUAUAUAUAUAUAUAUAUAUAUAUAUAUAUAUAUAUAUAUAUAUAUAUAUAUAUAUAUAUAUAUAUAUBVBVBVBVBVBVBTCQCQCQCQCQCQCQCQCQCQ",
"AUAUAUAUAUAUAUAUAUAUAUAUAUAUAUAUAUAUAUAUAUAUAUAUAUAUAUAUAUAUAUAUAUAUAUAUAUAUAUAUAUAUAUAUAUAUAUAUAUAUAUAUAUAUAUAUAUAUAUAUAUAUAUAUAUAUAUAUAUAUAUAUBVBVBVBVBVBTCQCQCQCQCQCQCQCQCQCQCQ",
"AUAUAUAUAUAUAUAUAUAUAUAUAUAUAUAUAUAUAUAUAUAUAUAUAUAUAUAUAUAUAUAUAUAUAUAUAUAUAUAUAUAUAUAUAUAUAUAUAUAUAUAUAUAUAUAUAUAUAUAUAUAUAUAUAUAUAUAUAUAUAUAUBVBVBVBVBTCQCQCQCQCQCQCQCQCQCQCQCQ",
"AUAUAUAUAUAUAUAUAUAUAUAUAUAUAUAUAUAUAUAUAUAUAUAUAUAUAUAUAUAUAUAUAUAUAUAUAUAUAUAUAUAUAUAUAUAUAUAUAUAUAUAUAUAUAUAUAUAUAUAUAUAUAUAUAUAUAUAUAUAUAUAUBVBVBVBTCQCQCQCQCQCQCQCQCQCQCQCQCQ",
"AUAUAUAUAUAUAUAUAUAUAUAUAUAUAUAUAUAUAUAUAUAUAUAUAUAUAUAUAUAUAUAUAUAUAUAUAUAUAUAUAUAUAUAUAUAUAUAUAUAUAUAUAUAUAUAUAUAUAUAUAUAUAUAUAUAUAUAUAUAUAUAUBVBVBTCQCQCQCQCQCQCQCQCQCQCQCQCQCQ",
"AUAUAUAUAUAUAUAUAUAUAUAUAUAUAUAUAUAUAUAUAUAUAUAUAUAUAUAUAUAUAUAUAUAUAUAUAUAUAUAUAUAUAUAUAUAUAUAUAUAUAUAUAUAUAUAUAUAUAUAUAUAUAUAUAUAUAUAUAUAUAUAUBVBTCQCQCQCQCQCQCQCQCQCQCQCQCQCQCQ",
"AUAUAUAUAUAUAUAUAUAUAUAUAUAUAUAUAUAUAUAUAUAUAUAUAUAUAUAUAUAUAUAUAUAUAUAUAUAUAUAUAUAUAUAUAUAUAUAUAUAUAUAUAUAUAUAUAUAUAUAUAUAUAUAUAUAUAUAUAUAUAUAUBTCQCQCQCQCQCQCQCQCQCQCQCQCQCQCQCQ",
"XPMENDEXT"
};