/* XPM */
static char *dummy[]={
"32 32 7 1",
". c None",
"b c #000000",
"d c #800000",
"a c #808000",
"e c #c0c0c0",
"c c #ff0000",
"# c #ffff00",
"................................",
"................................",
"................................",
"........#a................#a....",
"........bbb...............bbb...",
"........bcb...............bcb...",
"........bcb...............bcb...",
".......bcdb..............bcbd...",
"...#a.bcddb..........#a.bcddb...",
"...bbbcdbdb..........bbbcdbdb...",
"...bcbdbbdb..........bcbdbbdb...",
"...bcbb.bdb..........bcbb.bdb...",
"...bcb..bdb..........bcb..bdb...",
"...bcb..bdb..........bcb..bdb...",
"...bcb..bdb..........bcb..bdb...",
"...bcb..bdb..........bcb..bdb...",
"...bcb..bdb..........bcb..bdb...",
"...bcb..bdb..........bcb..bdb...",
"eeebcbeebdbeeeeeeeeeebcbeebdbeee",
"eeebcbeeeeeeeeeeeeeeebcbeeeeeeee",
"#eebcb##eee###eee###ebcb###eee##",
"eeebcbeeeeeeeeeeeeeeebcbeeeeeeee",
"aaaaaaaaaaaaaaaaaaaaaaaaaaaaaaaa",
"bbbbbbbbbbbbbbbbbbbbbbbbbbbbbbbb",
"dcdcdcdcdcdcdcdcdcdcdcdcdcdcdcdc",
"...bcbddddb..........bcbddddb...",
"...bcbddbdb..........bcbddbdb...",
"...bcbdb.b...........bcbdb.b....",
"...bcbd..............bcbd.......",
"...bcbd..............bcbd.......",
"...bcbb..............bcbb.......",
"...bbb...............bbb........"};
