<?xml version="1.0" encoding="iso-8859-1"?>
<!-- Generator: Adobe Illustrator 19.0.0, SVG Export Plug-In . SVG Version: 6.00 Build 0)  -->
<svg version="1.1" id="Layer_1" xmlns="http://www.w3.org/2000/svg" xmlns:xlink="http://www.w3.org/1999/xlink" x="0px" y="0px"
	 viewBox="0 0 496.485 496.485" style="enable-background:new 0 0 496.485 496.485;" xml:space="preserve">
<rect x="62.061" y="294.788" style="fill:#FFFFFF;" width="372.364" height="155.152"/>
<linearGradient id="SVGID_1_" gradientUnits="userSpaceOnUse" x1="-37.5994" y1="631.041" x2="-37.5994" y2="641.041" gradientTransform="matrix(15.5152 0 0 -15.5152 831.6023 9992.3945)">
	<stop  offset="0" style="stop-color:#4DC4FF"/>
	<stop  offset="1" style="stop-color:#4DE1FF"/>
</linearGradient>
<rect x="124.121" y="46.545" style="fill:url(#SVGID_1_);" width="248.242" height="155.152"/>
<path style="fill:#297BCC;" d="M445.393,283.819c-2.886-2.886-6.889-4.546-10.969-4.546H263.758v-62.061h108.606
	c4.081,0,8.083-1.66,10.969-4.546c2.886-2.886,4.546-6.889,4.546-10.969V46.545c0-4.08-1.66-8.083-4.546-10.969
	c-2.886-2.886-6.889-4.546-10.969-4.546H263.758V0h-31.03v31.03H124.121c-4.08,0-8.083,1.66-10.969,4.546
	c-2.886,2.886-4.546,6.889-4.546,10.969v155.152c0,4.08,1.66,8.083,4.546,10.969s6.889,4.546,10.969,4.546h108.606v62.061H62.061
	c-4.08,0-8.083,1.66-10.969,4.546c-2.886,2.886-4.546,6.889-4.546,10.969v155.151c0,4.081,1.66,8.083,4.546,10.969
	c2.886,2.886,6.889,4.546,10.969,4.546l0,0h170.667v31.03h31.03v-31.03h170.667c4.081,0,8.083-1.66,10.969-4.546
	c2.886-2.886,4.546-6.889,4.546-10.969V294.788C449.939,290.707,448.279,286.704,445.393,283.819z M139.636,186.182V62.061h217.212
	v124.121H139.636z M418.909,434.424H77.576V310.303h341.333V434.424z"/>
<g>
</g>
<g>
</g>
<g>
</g>
<g>
</g>
<g>
</g>
<g>
</g>
<g>
</g>
<g>
</g>
<g>
</g>
<g>
</g>
<g>
</g>
<g>
</g>
<g>
</g>
<g>
</g>
<g>
</g>
</svg>
