<?xml version="1.0" encoding="iso-8859-1"?>
<!-- Generator: Adobe Illustrator 19.0.0, SVG Export Plug-In . SVG Version: 6.00 Build 0)  -->
<svg version="1.1" id="Layer_1" xmlns="http://www.w3.org/2000/svg" xmlns:xlink="http://www.w3.org/1999/xlink" x="0px" y="0px"
	 viewBox="0 0 479.84 479.84" style="enable-background:new 0 0 479.84 479.84;" xml:space="preserve">
<linearGradient id="SVGID_1_" gradientUnits="userSpaceOnUse" x1="-46.2276" y1="598.1525" x2="-46.2276" y2="626.1413" gradientTransform="matrix(16 0 0 -16 979.56 10034.2803)">
	<stop  offset="0" style="stop-color:#4DC3FF"/>
	<stop  offset="1" style="stop-color:#4DE1FF"/>
</linearGradient>
<path style="fill:url(#SVGID_1_);" d="M463.136,255.84c9.392-135.52-101.52-247.504-236.8-239.408
	C109.04,23.392,16.144,120.768,16.144,239.84c0,123.712,100.288,224,224,224c118.352,0,215.248-91.776,223.44-208.032"/>
<g>
	<polygon style="fill:#297BCC;" points="225.376,0.464 225.376,0.464 225.392,0.464 	"/>
	<path style="fill:#297BCC;" d="M479.696,239.824c0-66.176-26.784-126.24-70.096-169.584C366.32,26.864,306.304,0,240.112,0
		c-4.88,0-9.792,0.144-14.72,0.448C99.648,7.936,0.16,112.256,0.144,239.84c0.016,132.56,107.44,239.984,240,240
		c126.8-0.032,230.624-98.304,239.408-222.912l-0.432-0.032C479.504,251.168,479.696,245.472,479.696,239.824z M447.6,254.768
		C439.968,362.624,350,447.872,240.144,447.84c-57.488-0.016-109.392-23.264-147.072-60.928
		c-37.68-37.68-60.928-89.584-60.928-147.072C32.112,129.28,118.432,38.848,227.28,32.4h0.016c4.304-0.256,8.576-0.384,12.816-0.384
		c57.456,0.016,109.248,23.232,146.848,60.848c37.568,37.648,60.736,89.504,60.752,146.976c0,4.928-0.176,9.888-0.512,14.896
		L447.6,254.768z"/>
</g>
<g>
</g>
<g>
</g>
<g>
</g>
<g>
</g>
<g>
</g>
<g>
</g>
<g>
</g>
<g>
</g>
<g>
</g>
<g>
</g>
<g>
</g>
<g>
</g>
<g>
</g>
<g>
</g>
<g>
</g>
</svg>
