<?xml version="1.0" encoding="iso-8859-1"?>
<!-- Generator: Adobe Illustrator 19.0.0, SVG Export Plug-In . SVG Version: 6.00 Build 0)  -->
<svg version="1.1" id="Layer_1" xmlns="http://www.w3.org/2000/svg" xmlns:xlink="http://www.w3.org/1999/xlink" x="0px" y="0px"
	 viewBox="0 0 479.824 479.824" style="enable-background:new 0 0 479.824 479.824;" xml:space="preserve">
<radialGradient id="SVGID_1_" cx="-360.883" cy="989.9741" r="2" gradientTransform="matrix(-125.3488 125.3488 -125.3488 -125.3488 79205.1953 169457.375)" gradientUnits="userSpaceOnUse">
	<stop  offset="0" style="stop-color:#4DE1FF"/>
	<stop  offset="1" style="stop-color:#4DA6FF"/>
</radialGradient>
<path style="fill:url(#SVGID_1_);" d="M463.128,255.824c9.392-135.52-101.52-247.504-236.8-239.408
	C109.032,23.376,16.136,120.752,16.136,239.824c0,123.712,100.288,224,224,224c118.352,0,215.248-91.776,223.44-208.032"/>
<g>
	<path style="fill:#297BCC;" d="M479.688,239.808c0-66.176-26.784-126.224-70.112-169.568C366.296,26.864,306.28,0,240.088,0
		c-4.88,0-9.792,0.144-14.72,0.448C99.64,7.92,0.152,112.24,0.136,239.824c0.016,132.56,107.44,239.984,240,240
		c126.8-0.032,230.624-98.304,239.408-222.912l-0.432-0.032C479.496,251.152,479.688,245.456,479.688,239.808z M447.592,254.752
		c-7.632,107.856-97.6,193.104-207.456,193.072c-57.488-0.016-109.392-23.264-147.072-60.928
		c-37.68-37.68-60.928-89.584-60.928-147.072c-0.032-110.56,86.288-200.992,195.136-207.44h0.016
		c4.304-0.256,8.576-0.384,12.8-0.384c57.456,0.016,109.248,23.232,146.848,60.848c37.568,37.648,60.736,89.504,60.752,146.976
		c0,4.928-0.176,9.888-0.512,14.896L447.592,254.752z"/>
	<polygon style="fill:#297BCC;" points="225.368,0.448 225.368,0.448 225.384,0.448 	"/>
</g>
<g>
</g>
<g>
</g>
<g>
</g>
<g>
</g>
<g>
</g>
<g>
</g>
<g>
</g>
<g>
</g>
<g>
</g>
<g>
</g>
<g>
</g>
<g>
</g>
<g>
</g>
<g>
</g>
<g>
</g>
</svg>
