<?xml version="1.0" encoding="iso-8859-1"?>
<!-- Generator: Adobe Illustrator 19.0.0, SVG Export Plug-In . SVG Version: 6.00 Build 0)  -->
<svg version="1.1" id="Layer_1" xmlns="http://www.w3.org/2000/svg" xmlns:xlink="http://www.w3.org/1999/xlink" x="0px" y="0px"
	 viewBox="0 0 479.824 479.824" style="enable-background:new 0 0 479.824 479.824;" xml:space="preserve">
<linearGradient id="SVGID_1_" gradientUnits="userSpaceOnUse" x1="-46.2356" y1="598.1365" x2="-46.2356" y2="626.1253" gradientTransform="matrix(16 0 0 -16 979.68 10034.0078)">
	<stop  offset="0" style="stop-color:#4DC3FF"/>
	<stop  offset="1" style="stop-color:#4DE1FF"/>
</linearGradient>
<path style="fill:url(#SVGID_1_);" d="M463.128,255.824c9.392-135.52-101.52-247.504-236.8-239.408
	C109.032,23.376,16.136,120.752,16.136,239.824c0,123.712,100.288,224,224,224c118.352,0,215.248-91.776,223.44-208.032
	L463.128,255.824z M366.648,259.424c-9.424,61.552-63.12,108.4-126.528,108.4c-70.576,0-128-57.408-128-128
	c0-67.568,52.656-123.6,119.888-127.584l8.096-0.24c35.76,0,68.88,14.368,93.264,40.512c24.416,26.176,36.48,60.512,33.984,96.64
	L366.648,259.424z"/>
<g>
	<path style="fill:#297BCC;" d="M240.104,96.016h-0.464l-8.096,0.24l-0.48,0.016C155.32,100.784,96.152,163.808,96.12,239.824
		c0.032,79.456,64.56,143.968,144,144c71.424-0.064,131.664-52.576,142.336-121.984l0.144-1.296l0.72-10.256
		c0.24-3.504,0.368-6.976,0.368-10.448c0.032-36.592-13.552-71.424-38.608-98.24C317.784,112.288,280.184,95.968,240.104,96.016z
		 M351.4,248.064l-0.656,9.344c-8.352,53.504-55.376,94.48-110.624,94.416c-30.912,0-58.816-12.528-79.152-32.848
		c-20.304-20.336-32.832-48.24-32.848-79.152c-0.016-59.072,46.064-108.096,104.736-111.6l7.344-0.208
		c31.424,0.08,60.016,12.496,81.472,35.424c19.568,21.008,29.968,47.648,30,76.4L351.4,248.064z"/>
	<path style="fill:#297BCC;" d="M479.688,239.808c0-66.176-26.784-126.224-70.112-169.568C366.296,26.864,306.28,0,240.088,0
		c-4.88,0-9.792,0.144-14.72,0.448C99.656,7.92,0.152,112.24,0.136,239.824c0.016,132.56,107.44,239.984,240,240
		c126.8-0.032,230.624-98.304,239.408-222.912c0.064-0.832-0.288-1.6-0.352-2.416C479.464,249.584,479.688,244.672,479.688,239.808z
		 M447.416,256.352C439,363.44,349.432,447.856,240.136,447.824c-57.488-0.016-109.392-23.264-147.072-60.928
		c-37.68-37.68-60.928-89.584-60.928-147.072c-0.032-110.56,86.288-200.992,195.136-207.44c4.304-0.256,8.576-0.384,12.816-0.384
		c57.456,0.016,109.248,23.232,146.848,60.848c37.568,37.648,60.736,89.504,60.752,146.976c0,4.928-0.176,9.904-0.512,14.912
		C447.128,255.28,447.384,255.792,447.416,256.352z"/>
</g>
<g>
</g>
<g>
</g>
<g>
</g>
<g>
</g>
<g>
</g>
<g>
</g>
<g>
</g>
<g>
</g>
<g>
</g>
<g>
</g>
<g>
</g>
<g>
</g>
<g>
</g>
<g>
</g>
<g>
</g>
</svg>
