<?xml version="1.0" encoding="iso-8859-1"?>
<!-- Generator: Adobe Illustrator 19.0.0, SVG Export Plug-In . SVG Version: 6.00 Build 0)  -->
<svg version="1.1" id="Layer_1" xmlns="http://www.w3.org/2000/svg" xmlns:xlink="http://www.w3.org/1999/xlink" x="0px" y="0px"
	 viewBox="0 0 512 512" style="enable-background:new 0 0 512 512;" xml:space="preserve">
<linearGradient id="SVGID_1_" gradientUnits="userSpaceOnUse" x1="-41.9373" y1="628.3125" x2="-17.9373" y2="628.3125" gradientTransform="matrix(16 0 0 -16 734.9969 10309)">
	<stop  offset="0" style="stop-color:#4DA6FF"/>
	<stop  offset="1" style="stop-color:#4DE1FF"/>
</linearGradient>
<path style="fill:url(#SVGID_1_);" d="M256,16C63.264,386.368,64,375.36,64,400c0,65.952,99.52,96,192,96s192-30.048,192-96
	C448,375.36,448.768,386.4,256,16z"/>
<path style="fill:#297BCC;" d="M459.92,375.6c-5.408-14.608-16.752-36.656-44.96-90.528
	c-28.176-53.728-73.072-138.688-144.768-276.448C267.44,3.312,261.968,0,256,0c-5.968,0-11.44,3.312-14.192,8.608
	C146.176,192.368,98.256,282.096,74.032,329.28c-12.128,23.648-18.352,36.544-21.968,46.352c-3.728,9.616-4.208,17.952-4.064,23.808
	V400c-0.08,20.592,8.128,39.12,21.056,53.472c19.456,21.648,48.448,35.6,81.216,44.944C183.088,507.664,220.016,511.984,256,512
	c47.984-0.048,97.616-7.616,137.024-24.576c19.696-8.544,36.992-19.488,49.92-33.952C455.872,439.12,464.08,420.592,464,400v-0.576
	C464.144,393.568,463.648,385.216,459.92,375.6z M432,400c-0.08,12.384-4.32,22.352-12.944,32.176
	c-12.864,14.64-36.704,27.248-66.016,35.44c-29.248,8.272-63.664,12.4-97.04,12.384c-44.496,0.048-90.864-7.408-124.336-21.952
	c-16.752-7.216-30.112-16.144-38.736-25.872C84.32,422.352,80.08,412.384,80,400v-0.56c0.144-6.112-0.256-5.744,2.128-12.832
	c3.76-10.464,15.136-33.136,43.232-86.656c26.224-50,67.104-127.36,130.64-249.312c86.208,165.424,130.736,248.912,153.488,293.216
	c11.968,23.28,17.888,35.84,20.384,42.752c2.384,7.088,1.984,6.72,2.128,12.816V400z"/>
<g>
</g>
<g>
</g>
<g>
</g>
<g>
</g>
<g>
</g>
<g>
</g>
<g>
</g>
<g>
</g>
<g>
</g>
<g>
</g>
<g>
</g>
<g>
</g>
<g>
</g>
<g>
</g>
<g>
</g>
</svg>
