<?xml version="1.0" encoding="iso-8859-1"?>
<!-- Generator: Adobe Illustrator 19.0.0, SVG Export Plug-In . SVG Version: 6.00 Build 0)  -->
<svg version="1.1" id="Layer_1" xmlns="http://www.w3.org/2000/svg" xmlns:xlink="http://www.w3.org/1999/xlink" x="0px" y="0px"
	 viewBox="0 0 511.889 511.889" style="enable-background:new 0 0 511.889 511.889;" xml:space="preserve">
<polygon style="fill:#4DC3FF;" points="255.945,352 255.945,496 31.945,400 31.945,112 143.945,160 "/>
<linearGradient id="SVGID_1_" gradientUnits="userSpaceOnUse" x1="-27.0674" y1="629.3889" x2="-15.8244" y2="618.1409" gradientTransform="matrix(16 0 0 -16 735.8303 10309)">
	<stop  offset="0" style="stop-color:#4DA6FF"/>
	<stop  offset="1" style="stop-color:#4DC3FF"/>
</linearGradient>
<polygon style="fill:url(#SVGID_1_);" points="479.945,112 479.945,400 255.945,496 255.945,352 367.945,160 "/>
<polygon style="fill:#4DE1FF;" points="479.945,112 367.945,160 143.945,160 31.945,112 255.945,16 "/>
<path style="fill:#297BCC;" d="M495.305,107.68c-0.128-0.448-0.336-0.848-0.496-1.28c-0.336-0.912-0.736-1.792-1.232-2.624
	c-0.288-0.464-0.608-0.896-0.944-1.328c-0.528-0.704-1.104-1.36-1.76-1.968c-0.416-0.416-0.848-0.8-1.328-1.152
	c-0.288-0.208-0.496-0.48-0.8-0.688c-0.496-0.336-1.056-0.512-1.584-0.784c-0.32-0.16-0.576-0.416-0.912-0.56l-224-96
	c-4.048-1.728-8.56-1.728-12.608,0l-224,96c-0.336,0.144-0.592,0.4-0.912,0.56c-0.528,0.272-1.088,0.464-1.584,0.8
	c-0.304,0.192-0.528,0.464-0.8,0.672c-0.48,0.352-0.912,0.736-1.328,1.136c-0.656,0.608-1.232,1.264-1.76,1.968
	c-0.336,0.432-0.656,0.864-0.944,1.328c-0.496,0.832-0.896,1.712-1.232,2.64c-0.16,0.416-0.368,0.832-0.496,1.28
	c-0.4,1.392-0.64,2.832-0.64,4.32v288c0,6.416,3.792,12.176,9.696,14.704l224,96c0.176,0.08,0.352,0.08,0.528,0.16
	c0.656,0.256,1.328,0.416,2,0.576c0.608,0.144,1.2,0.304,1.808,0.384c0.656,0.08,1.296,0.064,1.952,0.064
	c0.656,0,1.312,0.016,1.952-0.064c0.608-0.08,1.2-0.24,1.808-0.384c0.688-0.16,1.36-0.32,2.016-0.576
	c0.176-0.064,0.352-0.08,0.528-0.16l224-96c5.92-2.528,9.712-8.272,9.712-14.704V112
	C495.945,110.512,495.705,109.072,495.305,107.68z M255.945,33.408L439.321,112l-74.672,32H147.225l-74.656-32L255.945,33.408z
	 M239.945,471.744l-192-82.288V136.272l84.848,36.368l107.152,183.696V471.744z M255.945,320.256L171.801,176h168.288
	L255.945,320.256z M463.945,389.456l-192,82.288V356.336L379.097,172.64l84.848-36.368V389.456z"/>
<polygon style="fill:#FFFFFF;" points="367.945,160 255.945,352 143.945,160 "/>
<path style="fill:#339AFF;" d="M381.817,152.032c-2.848-4.96-8.16-8.032-13.872-8.032h-224c-5.712,0-11.024,3.072-13.872,8.032
	c-2.848,4.96-2.832,11.088,0.048,16.032l112,192c2.88,4.944,8.112,7.936,13.824,7.936c5.712,0,10.944-3.008,13.824-7.936l112-192
	C384.649,163.136,384.665,156.992,381.817,152.032z M255.945,320.256L171.801,176h168.288L255.945,320.256z"/>
<g>
</g>
<g>
</g>
<g>
</g>
<g>
</g>
<g>
</g>
<g>
</g>
<g>
</g>
<g>
</g>
<g>
</g>
<g>
</g>
<g>
</g>
<g>
</g>
<g>
</g>
<g>
</g>
<g>
</g>
</svg>
