<?xml version="1.0" encoding="iso-8859-1"?>
<!-- Generator: Adobe Illustrator 19.0.0, SVG Export Plug-In . SVG Version: 6.00 Build 0)  -->
<svg version="1.1" id="Layer_1" xmlns="http://www.w3.org/2000/svg" xmlns:xlink="http://www.w3.org/1999/xlink" x="0px" y="0px"
	 viewBox="0 0 511.992 511.992" style="enable-background:new 0 0 511.992 511.992;" xml:space="preserve">
<polygon style="fill:#4DC3FF;" points="255.994,279.991 255.994,495.984 32.001,399.988 32.001,111.997 199.995,183.994 "/>
<path style="fill:#297BCC;" d="M255.994,279.991h-15.999v191.722L48,389.444V136.268l140.844,60.366l53.342,91.437L255.994,279.991
	h-15.999H255.994l13.824-8.064l-55.998-95.997c-1.728-2.96-4.368-5.296-7.52-6.64L38.304,97.293
	c-4.976-2.128-10.608-1.616-15.12,1.36c-4.496,2.96-7.184,7.952-7.184,13.344v287.991c0,6.416,3.792,12.176,9.696,14.704
	l223.993,95.997c4.96,2.128,10.608,1.632,15.104-1.344c4.512-2.976,7.2-7.952,7.2-13.36V279.991l-2.176-8.064L255.994,279.991z"/>
<linearGradient id="SVGID_1_" gradientUnits="userSpaceOnUse" x1="-27.8996" y1="628.0194" x2="-16.9096" y2="617.0264" gradientTransform="matrix(15.9995 0 0 -15.9995 735.0798 10308.6738)">
	<stop  offset="0" style="stop-color:#4DA6FF"/>
	<stop  offset="1" style="stop-color:#4DC3FF"/>
</linearGradient>
<polygon style="fill:url(#SVGID_1_);" points="479.987,183.994 479.987,399.988 255.994,495.984 255.994,279.991 "/>
<path style="fill:#297BCC;" d="M479.987,183.994h-15.999v205.45l-191.994,82.285V290.551l214.297-91.837L479.987,183.994h-15.999
	H479.987l-6.304-14.704L249.69,265.288c-5.904,2.528-9.696,8.288-9.696,14.704v215.993c0,5.408,2.688,10.384,7.184,13.36
	c4.512,2.976,10.144,3.472,15.104,1.344l223.993-95.997c5.92-2.528,9.712-8.272,9.712-14.704V183.994
	c0-5.408-2.688-10.384-7.184-13.36c-4.512-2.976-10.144-3.472-15.104-1.344L479.987,183.994z"/>
<polygon style="fill:#4DE1FF;" points="423.988,87.997 199.995,183.994 32.001,111.997 255.994,16 "/>
<path style="fill:#297BCC;" d="M423.988,87.997l-6.304-14.704l-217.689,93.293l-127.372-54.59l183.37-78.59l161.691,69.294
	L423.988,87.997l-6.304-14.704L423.988,87.997l6.304-14.704L262.297,1.296c-4.048-1.728-8.56-1.728-12.608,0L25.697,97.293
	c-5.904,2.528-9.696,8.288-9.696,14.704s3.792,12.176,9.696,14.704l167.995,71.998c4.032,1.728,8.56,1.728,12.608,0l223.993-95.997
	c5.904-2.528,9.696-8.272,9.696-14.704c0-6.416-3.792-12.176-9.696-14.704L423.988,87.997z"/>
<polygon style="fill:#FFFFFF;" points="479.987,183.994 255.994,279.991 199.995,183.994 423.988,87.997 446.388,126.396 "/>
<path style="fill:#297BCC;" d="M488.786,170.651c-4.512-2.976-10.144-3.472-15.104-1.344l-211.001,90.429l-39.759-68.142
	l207.354-88.861c5.92-2.56,9.712-8.304,9.712-14.736c0-6.416-3.792-12.176-9.696-14.704L262.297,1.296
	c-4.048-1.728-8.56-1.728-12.608,0L25.697,97.293c-5.904,2.528-9.696,8.288-9.696,14.704v287.991c0,6.416,3.792,12.176,9.696,14.704
	l223.993,95.997c4.048,1.728,8.56,1.728,12.608,0l223.993-95.997c5.904-2.528,9.696-8.272,9.696-14.704V183.994
	C495.986,178.602,493.298,173.611,488.786,170.651z M255.994,33.407l127.372,54.59l-183.37,78.59l-127.372-54.59L255.994,33.407z
	 M239.994,471.729L48,389.444V136.268l140.844,60.366l51.15,87.693V471.729z M463.987,389.444l-191.994,82.285V290.551
	l191.994-82.285V389.444z"/>
<polygon style="fill:#FFFFFF;" points="479.987,183.994 255.994,279.991 199.995,183.994 423.988,87.997 446.388,126.396 "/>
<path style="fill:#339AFF;" d="M493.81,175.931l-33.599-57.598l-22.399-38.399c-4.064-6.96-12.704-9.824-20.127-6.64
	l-223.993,95.997c-4.208,1.808-7.456,5.344-8.896,9.696s-0.928,9.136,1.376,13.072l55.998,95.997
	c4.064,6.96,12.704,9.824,20.127,6.64l223.993-95.997c4.208-1.808,7.456-5.344,8.896-9.696
	C496.626,184.65,496.114,179.882,493.81,175.931z M262.681,259.72l-39.759-68.142l194.362-83.293l15.28,26.191l24.479,41.967
	L262.681,259.72z"/>
<g>
</g>
<g>
</g>
<g>
</g>
<g>
</g>
<g>
</g>
<g>
</g>
<g>
</g>
<g>
</g>
<g>
</g>
<g>
</g>
<g>
</g>
<g>
</g>
<g>
</g>
<g>
</g>
<g>
</g>
</svg>
