<?xml version="1.0" encoding="iso-8859-1"?>
<!-- Generator: Adobe Illustrator 19.0.0, SVG Export Plug-In . SVG Version: 6.00 Build 0)  -->
<svg version="1.1" id="Layer_1" xmlns="http://www.w3.org/2000/svg" xmlns:xlink="http://www.w3.org/1999/xlink" x="0px" y="0px"
	 viewBox="0 0 511.889 511.889" style="enable-background:new 0 0 511.889 511.889;" xml:space="preserve">
<polygon style="fill:#4DC3FF;" points="255.945,352 255.945,496 31.945,400 31.945,112 143.945,160 "/>
<linearGradient id="SVGID_1_" gradientUnits="userSpaceOnUse" x1="-26.9112" y1="624.7291" x2="-18.2222" y2="616.0441" gradientTransform="matrix(16 0 0 -16 735.8302 10309)">
	<stop  offset="0" style="stop-color:#4DA6FF"/>
	<stop  offset="1" style="stop-color:#4DC3FF"/>
</linearGradient>
<polygon style="fill:url(#SVGID_1_);" points="479.945,256 479.945,400 255.945,496 255.945,352 "/>
<polygon style="fill:#4DE1FF;" points="367.945,64 143.945,160 31.945,112 255.945,16 "/>
<path style="fill:#297BCC;" d="M488.745,242.656c-4.512-2.976-10.144-3.472-15.104-1.344l-211.008,90.432L166.873,167.6
	l207.36-88.864c5.92-2.56,9.712-8.304,9.712-14.736c0-6.416-3.792-12.176-9.696-14.704l-112-48c-4.048-1.728-8.56-1.728-12.608,0
	l-224,96c-0.336,0.144-0.592,0.4-0.912,0.56c-0.528,0.272-1.088,0.464-1.584,0.8c-0.304,0.192-0.528,0.464-0.8,0.672
	c-0.48,0.352-0.912,0.736-1.328,1.136c-0.656,0.608-1.232,1.264-1.76,1.968c-0.336,0.432-0.656,0.864-0.944,1.328
	c-0.496,0.832-0.896,1.712-1.232,2.64c-0.16,0.416-0.368,0.832-0.496,1.28c-0.4,1.392-0.64,2.832-0.64,4.32v288
	c0,6.416,3.792,12.176,9.696,14.704l224,96c0.176,0.08,0.352,0.08,0.528,0.16c0.656,0.256,1.328,0.416,2,0.576
	c0.608,0.144,1.2,0.304,1.808,0.384c0.656,0.08,1.296,0.064,1.952,0.064c0.656,0,1.312,0.016,1.952-0.064
	c0.608-0.08,1.2-0.24,1.808-0.384c0.688-0.16,1.36-0.32,2.016-0.576c0.176-0.064,0.352-0.08,0.528-0.16l224-96
	c5.92-2.528,9.712-8.272,9.712-14.704V256C495.945,250.608,493.257,245.616,488.745,242.656z M255.945,33.408L327.321,64
	l-183.376,78.592L72.569,112L255.945,33.408z M239.945,471.744l-192-82.288V136.272l84.848,36.368l107.152,183.696V471.744z
	 M463.945,389.456l-192,82.288V362.56l192-82.288V389.456z"/>
<g>
	<polygon style="fill:#FFFFFF;" points="367.945,160 255.945,208 255.945,352 479.945,256 479.945,112 	"/>
	<polygon style="fill:#FFFFFF;" points="143.945,160 255.945,352 255.945,208 	"/>
	<polygon style="fill:#FFFFFF;" points="367.945,160 479.945,112 367.945,64 143.945,160 255.945,208 	"/>
</g>
<path style="fill:#339AFF;" d="M495.305,107.68c-0.128-0.448-0.336-0.848-0.496-1.28c-0.336-0.912-0.736-1.792-1.232-2.624
	c-0.288-0.464-0.608-0.896-0.944-1.328c-0.528-0.704-1.12-1.36-1.76-1.984c-0.432-0.4-0.848-0.784-1.328-1.136
	c-0.288-0.208-0.496-0.48-0.8-0.688c-0.496-0.336-1.056-0.512-1.6-0.784c-0.32-0.16-0.576-0.416-0.912-0.56l-112-48
	c-4.048-1.728-8.56-1.728-12.608,0l-224,96c-0.304,0.144-0.56,0.384-0.864,0.544c-0.656,0.336-1.248,0.72-1.856,1.152
	c-0.784,0.528-1.488,1.104-2.144,1.76c-0.256,0.24-0.56,0.4-0.8,0.656c-0.224,0.256-0.32,0.576-0.528,0.832
	c-0.592,0.752-1.088,1.552-1.536,2.416c-0.32,0.608-0.624,1.184-0.848,1.824c-0.304,0.832-0.496,1.68-0.656,2.56
	c-0.144,0.72-0.288,1.424-0.336,2.16c0,0.288-0.112,0.528-0.112,0.8c0,0.624,0.192,1.2,0.272,1.792
	c0.08,0.72,0.128,1.424,0.32,2.144c0.256,0.992,0.656,1.904,1.088,2.816c0.208,0.432,0.256,0.88,0.496,1.296l112,192
	c0.112,0.192,0.288,0.32,0.416,0.496c0.704,1.088,1.52,2.08,2.48,2.992c0.384,0.368,0.768,0.688,1.184,1.008
	c0.336,0.256,0.592,0.576,0.944,0.8c0.592,0.384,1.248,0.624,1.872,0.928c0.416,0.208,0.8,0.448,1.232,0.608
	c1.456,0.56,2.944,0.928,4.48,1.04c0.24,0.016,0.464-0.032,0.704-0.032c1.344,0.048,2.688-0.096,4.032-0.4
	c0.224-0.048,0.432,0,0.656-0.064c0.272-0.08,0.48-0.256,0.736-0.336c0.464-0.144,0.944-0.208,1.392-0.4l224-96
	c5.904-2.512,9.696-8.256,9.696-14.688V112C495.945,110.512,495.689,109.072,495.305,107.68z M182.185,193.808l57.76,24.752v74.272
	L182.185,193.808z M255.945,190.592L184.569,160l183.376-78.592L439.321,112l-77.68,33.296L255.945,190.592z M463.945,245.456
	l-192,82.288V218.56l102.304-43.84l89.696-38.448V245.456z"/>
<g>
</g>
<g>
</g>
<g>
</g>
<g>
</g>
<g>
</g>
<g>
</g>
<g>
</g>
<g>
</g>
<g>
</g>
<g>
</g>
<g>
</g>
<g>
</g>
<g>
</g>
<g>
</g>
<g>
</g>
</svg>
