<?xml version="1.0" encoding="iso-8859-1"?>
<!-- Generator: Adobe Illustrator 19.0.0, SVG Export Plug-In . SVG Version: 6.00 Build 0)  -->
<svg version="1.1" id="Layer_1" xmlns="http://www.w3.org/2000/svg" xmlns:xlink="http://www.w3.org/1999/xlink" x="0px" y="0px"
	 viewBox="0 0 512 512" style="enable-background:new 0 0 512 512;" xml:space="preserve">
<linearGradient id="SVGID_1_" gradientUnits="userSpaceOnUse" x1="-39.9375" y1="626.3125" x2="-19.9375" y2="626.3125" gradientTransform="matrix(16 0 0 -16 735 10309)">
	<stop  offset="0" style="stop-color:#4DA6FF"/>
	<stop  offset="1" style="stop-color:#4DE1FF"/>
</linearGradient>
<path style="fill:url(#SVGID_1_);" d="M256,144c88.32,0,160-28.8,160-64v352c0,35.2-71.68,64-160,64S96,467.2,96,432V80
	C96,115.2,167.68,144,256,144z"/>
<path style="fill:#4DE1FF;" d="M256,16c88.32,0,160,28.8,160,64s-71.68,64-160,64S96,115.2,96,80S167.68,16,256,16z"/>
<path style="fill:#297BCC;" d="M414.4,43.52c-15.36-14.336-37.648-24.544-64.784-32C322.48,4.176,290.432,0,256,0
	c-45.92,0.032-87.552,7.36-119.072,19.952C121.152,26.288,107.824,33.904,97.6,43.52C87.488,52.976,80,65.504,80,80v352
	c0,14.496,7.488,27.024,17.6,36.48c15.36,14.336,37.648,24.544,64.784,32C189.52,507.824,221.568,512,256,512
	c45.92-0.032,87.552-7.36,119.072-19.952c15.776-6.352,29.104-13.968,39.344-23.568C424.512,459.024,432,446.496,432,432V80
	C432,65.504,424.512,52.976,414.4,43.52z M400,432c0,3.104-1.472,7.376-7.568,13.216c-8.944,8.624-27.248,17.984-51.184,24.368
	C317.312,476.08,287.808,480,256,480c-42.4,0.032-80.768-7.04-107.168-17.648c-13.184-5.248-23.296-11.44-29.264-17.136
	C113.472,439.376,112,435.104,112,432V127.392c13.76,8.784,30.752,15.696,50.384,21.072c27.136,7.36,59.184,11.52,93.616,11.536
	c45.92-0.032,87.552-7.36,119.072-19.952c9.232-3.712,17.504-7.936,24.928-12.656V432z M392.432,93.216
	c-8.944,8.624-27.248,17.984-51.184,24.368C317.312,124.08,287.808,128,256,128c-42.4,0.032-80.768-7.04-107.168-17.648
	c-13.184-5.264-23.296-11.44-29.264-17.136C113.472,87.376,112,83.104,112,80c0-3.104,1.472-7.376,7.568-13.216
	c8.944-8.624,27.248-17.984,51.184-24.368C194.688,35.92,224.192,31.984,256,32c42.4-0.032,80.768,7.04,107.168,17.648
	c13.184,5.248,23.296,11.44,29.264,17.136C398.528,72.624,400,76.896,400,80S398.528,87.376,392.432,93.216z"/>
<g>
</g>
<g>
</g>
<g>
</g>
<g>
</g>
<g>
</g>
<g>
</g>
<g>
</g>
<g>
</g>
<g>
</g>
<g>
</g>
<g>
</g>
<g>
</g>
<g>
</g>
<g>
</g>
<g>
</g>
</svg>
