<?xml version="1.0" encoding="iso-8859-1"?>
<!-- Generator: Adobe Illustrator 19.0.0, SVG Export Plug-In . SVG Version: 6.00 Build 0)  -->
<svg version="1.1" id="Layer_1" xmlns="http://www.w3.org/2000/svg" xmlns:xlink="http://www.w3.org/1999/xlink" x="0px" y="0px"
	 viewBox="0 0 512 512" style="enable-background:new 0 0 512 512;" xml:space="preserve">
<linearGradient id="SVGID_1_" gradientUnits="userSpaceOnUse" x1="-29.9375" y1="582.8745" x2="-29.9375" y2="592.8745" gradientTransform="matrix(16 0 0 -16 735 9792.2344)">
	<stop  offset="0" style="stop-color:#4DC4FF"/>
	<stop  offset="1" style="stop-color:#4DE1FF"/>
</linearGradient>
<rect x="16" y="306.242" style="fill:url(#SVGID_1_);" width="480" height="160"/>
<g>
	<path style="fill:#297BCC;" d="M68.688,93.602l35.888,35.888c6.256,6.256,16.384,6.256,22.624,0c6.256-6.256,6.256-16.384,0-22.624
		l-9.248-9.264h279.984l-9.248,9.248c-6.256,6.256-6.256,16.384,0,22.624c6.256,6.256,16.384,6.256,22.624,0L447.2,93.602
		c2.976-2.976,4.688-7.104,4.688-11.312c0-0.112-0.064-0.224-0.064-0.336c0-0.128,0.064-0.224,0.064-0.336
		c0-5.328-2.768-9.824-6.784-12.72l-33.792-33.792c-6.256-6.256-16.384-6.256-22.624,0c-6.256,6.256-6.256,16.384,0,22.624
		l7.888,7.872H119.312l7.888-7.888c6.256-6.256,6.256-16.384,0-22.624c-6.256-6.256-16.384-6.256-22.624,0l0,0L70.784,68.882
		C66.768,71.794,64,76.274,64,81.602c0,0.112,0.064,0.208,0.064,0.336C63.968,86.146,65.472,90.386,68.688,93.602z"/>
	<rect y="129.602" style="fill:#297BCC;" width="32" height="64"/>
	<rect y="33.602" style="fill:#297BCC;" width="32" height="64"/>
	<path style="fill:#297BCC;" d="M480,289.602H32v-64H0v80h0.128c0,0.224-0.128,0.448-0.128,0.688v160c0,4.208,1.712,8,4.688,10.976
		s7.104,4.336,11.312,4.336h480c4.208,0,8.336-1.712,11.312-4.688S512,465.602,512,465.602V306.29c0-0.224-0.128-0.448-0.128-0.688
		H512v-80h-32V289.602z M32,449.602v-128h448v128H32z"/>
	<rect x="480" y="129.602" style="fill:#297BCC;" width="32" height="64"/>
	<rect x="480" y="33.602" style="fill:#297BCC;" width="32" height="64"/>
</g>
<g>
</g>
<g>
</g>
<g>
</g>
<g>
</g>
<g>
</g>
<g>
</g>
<g>
</g>
<g>
</g>
<g>
</g>
<g>
</g>
<g>
</g>
<g>
</g>
<g>
</g>
<g>
</g>
<g>
</g>
</svg>
