<?xml version="1.0" encoding="iso-8859-1"?>
<!-- Generator: Adobe Illustrator 19.0.0, SVG Export Plug-In . SVG Version: 6.00 Build 0)  -->
<svg version="1.1" id="Layer_1" xmlns="http://www.w3.org/2000/svg" xmlns:xlink="http://www.w3.org/1999/xlink" x="0px" y="0px"
	 viewBox="0 0 512.008 512.008" style="enable-background:new 0 0 512.008 512.008;" xml:space="preserve">
<linearGradient id="SVGID_1_" gradientUnits="userSpaceOnUse" x1="-29.8567" y1="621.2972" x2="-29.8567" y2="635.2972" gradientTransform="matrix(15.9646 0 0 -15.9646 733.2046 10285.9375)">
	<stop  offset="0" style="stop-color:#4DC4FF"/>
	<stop  offset="1" style="stop-color:#4DE1FF"/>
</linearGradient>
<rect x="144.803" y="143.685" style="fill:url(#SVGID_1_);" width="223.504" height="223.504"/>
<g>
	<path style="fill:#297BCC;" d="M368.323,367.189v-15.965h-207.54V159.65h191.575v207.54H368.323v-15.965V367.189h15.965V143.685
		c0-4.199-1.708-8.318-4.678-11.287c-2.969-2.969-7.088-4.678-11.287-4.678H144.819c-4.199,0-8.318,1.708-11.287,4.678
		c-2.969,2.969-4.678,7.088-4.678,11.287v223.504c0,4.199,1.708,8.318,4.678,11.287s7.088,4.678,11.287,4.678h223.504
		c4.199,0,8.318-1.708,11.287-4.678c2.969-2.969,4.678-7.088,4.678-11.287H368.323z"/>
	<path style="fill:#297BCC;" d="M494.906,95.791H438.79l68.536-68.536c6.242-6.242,6.242-16.348,0-22.574
		c-6.242-6.242-16.348-6.242-22.574,0l-68.536,68.536V17.102c0-8.812-7.711-15.965-16.539-15.965S384,8.29,384,17.102h0.287v89.96
		c-2.251,5.731-1.086,12.484,3.544,17.114c4.63,4.63,11.383,5.779,17.114,3.544h89.96c8.812,0,15.965-7.152,15.965-15.965
		S503.718,95.791,494.906,95.791z"/>
	<path style="fill:#297BCC;" d="M112.89,1.137c-8.812,0-15.965,7.152-15.965,15.965v57.249L27.256,4.682
		c-6.242-6.242-16.348-6.242-22.574,0c-6.242,6.242-6.242,16.348,0,22.574l68.536,68.536H17.102
		c-8.812,0-15.965,7.152-15.965,15.965s7.152,15.965,15.965,15.965h89.96c5.731,2.251,12.484,1.086,17.114-3.544
		c3.113-3.113,4.678-7.2,4.678-11.271c0,0,0,0,0-0.016V17.102C128.854,8.29,121.702,1.137,112.89,1.137z"/>
	<path style="fill:#297BCC;" d="M507.326,484.752l-69.669-69.669h57.249c8.812,0,15.965-7.152,15.965-15.965
		c0-8.812-7.152-15.965-15.965-15.965h-95.787c-4.087,0-8.174,1.565-11.287,4.678c-4.63,4.63-5.779,11.383-3.544,17.114v89.96
		c0,8.812,6.577,15.965,15.39,15.965s16.252-7.152,16.252-15.965h0.287V438.79l68.536,68.536c6.242,6.242,16.348,6.242,22.574,0
		C513.568,501.1,513.568,490.979,507.326,484.752z"/>
	<path style="fill:#297BCC;" d="M124.176,387.831c-1.485-1.501-3.273-2.666-5.204-3.464c-1.948-0.798-4.007-1.213-6.082-1.213
		H17.102c-8.812,0-15.965,7.152-15.965,15.965c0,8.812,7.152,15.965,15.965,15.965h57.249L4.682,484.752
		c-6.242,6.242-6.242,16.348,0,22.574c6.242,6.242,16.348,6.242,22.574,0l69.669-69.669v57.249c0,8.812,7.152,15.965,15.965,15.965
		s15.965-7.152,15.965-15.965v-95.787c0-2.075-0.415-4.135-1.213-6.083C126.843,391.104,125.677,389.316,124.176,387.831z"/>
</g>
<g>
</g>
<g>
</g>
<g>
</g>
<g>
</g>
<g>
</g>
<g>
</g>
<g>
</g>
<g>
</g>
<g>
</g>
<g>
</g>
<g>
</g>
<g>
</g>
<g>
</g>
<g>
</g>
<g>
</g>
</svg>
