<?xml version="1.0" encoding="iso-8859-1"?>
<!-- Generator: Adobe Illustrator 19.0.0, SVG Export Plug-In . SVG Version: 6.00 Build 0)  -->
<svg version="1.1" id="Layer_1" xmlns="http://www.w3.org/2000/svg" xmlns:xlink="http://www.w3.org/1999/xlink" x="0px" y="0px"
	 viewBox="0 0 512.009 512.009" style="enable-background:new 0 0 512.009 512.009;" xml:space="preserve">
<linearGradient id="SVGID_1_" gradientUnits="userSpaceOnUse" x1="-29.8517" y1="621.2935" x2="-29.8517" y2="635.2935" gradientTransform="matrix(15.9651 0 0 -15.9651 733.1527 10286.2031)">
	<stop  offset="0" style="stop-color:#4DC4FF"/>
	<stop  offset="1" style="stop-color:#4DE1FF"/>
</linearGradient>
<rect x="144.812" y="143.694" style="fill:url(#SVGID_1_);" width="223.511" height="223.511"/>
<g>
	<path style="fill:#297BCC;" d="M379.611,132.406c-2.985-2.97-7.089-4.678-11.287-4.678H144.812c-4.215,0-8.318,1.708-11.303,4.678
		c-2.985,2.969-4.662,7.088-4.662,11.287v223.511c0,4.199,1.708,8.318,4.678,11.287s7.073,4.678,11.287,4.678h223.511
		c4.199,0,8.318-1.708,11.287-4.678s4.678-7.089,4.678-11.287V143.694C384.288,139.495,382.58,135.376,379.611,132.406z
		 M352.358,351.24H160.777V159.659h191.581V351.24z"/>
	<path style="fill:#297BCC;" d="M510.78,9.89c-0.798-1.932-1.964-3.72-3.464-5.205c-1.485-1.485-3.273-2.666-5.205-3.464
		c-1.932-0.798-4.007-1.213-6.083-1.213h-95.79c-8.813,0-15.965,7.152-15.965,15.965s7.152,15.965,15.965,15.965h57.251
		l-69.672,69.672c-6.242,6.242-6.242,16.348,0,22.575c6.242,6.242,16.348,6.242,22.575,0l69.672-69.672v57.251
		c0,8.813,7.152,15.965,15.965,15.965c8.813,0,15.965-7.152,15.965-15.965v-95.79C512.009,13.898,511.578,11.838,510.78,9.89z"/>
	<path style="fill:#297BCC;" d="M496.044,384.303c-8.813,0-15.965,7.152-15.965,15.965v57.251l-69.672-69.672
		c-6.242-6.242-16.348-6.242-22.575,0c-6.242,6.242-6.242,16.348,0,22.575l68.522,68.538h-56.101
		c-8.813,0-15.965,7.152-15.965,15.965s7.152,15.965,15.965,15.965h89.963c5.731,2.251,12.485,1.086,17.115-3.544
		c3.113-3.113,4.678-7.2,4.678-11.271c0,0,0,0,0-0.016v-95.79C512.009,391.456,504.857,384.303,496.044,384.303z"/>
	<path style="fill:#297BCC;" d="M54.498,31.938h57.251c8.813,0,15.965-7.152,15.965-15.965s-7.152-15.965-15.965-15.965h-95.79
		c-4.087,0-8.174,1.565-11.303,4.678C0.025,9.316-1.14,16.085,1.111,21.8v89.963c0,8.813,6.578,15.965,15.39,15.965
		s16.252-7.152,16.252-15.965h0.303V55.646l68.538,68.538c6.242,6.242,16.348,6.242,22.575,0c6.242-6.242,6.242-16.348,0-22.575
		L54.498,31.938z"/>
	<path style="fill:#297BCC;" d="M124.169,387.848c-6.242-6.242-16.348-6.242-22.575,0l-68.538,68.538v-56.117
		c0-8.813-7.711-15.965-16.54-15.965c-8.813,0-15.678,7.152-15.678,15.965h0.287v89.963c-2.251,5.731-1.086,12.485,3.544,17.115
		c4.63,4.63,11.383,5.779,17.115,3.544h89.963c8.813,0,15.965-7.152,15.965-15.965s-7.152-15.965-15.965-15.965H55.631
		l68.538-68.538C130.396,404.196,130.396,394.074,124.169,387.848z"/>
</g>
<g>
</g>
<g>
</g>
<g>
</g>
<g>
</g>
<g>
</g>
<g>
</g>
<g>
</g>
<g>
</g>
<g>
</g>
<g>
</g>
<g>
</g>
<g>
</g>
<g>
</g>
<g>
</g>
<g>
</g>
</svg>
