<?xml version="1.0" encoding="iso-8859-1"?>
<!-- Generator: Adobe Illustrator 19.0.0, SVG Export Plug-In . SVG Version: 6.00 Build 0)  -->
<svg version="1.1" id="Layer_1" xmlns="http://www.w3.org/2000/svg" xmlns:xlink="http://www.w3.org/1999/xlink" x="0px" y="0px"
	 viewBox="0 0 511.992 511.992" style="enable-background:new 0 0 511.992 511.992;" xml:space="preserve">
<linearGradient id="SVGID_1_" gradientUnits="userSpaceOnUse" x1="-29.7765" y1="615.2333" x2="-29.7765" y2="641.2333" gradientTransform="matrix(15.8627 0 0 -15.8627 728.3307 10221.4648)">
	<stop  offset="0" style="stop-color:#4DC4FF"/>
	<stop  offset="1" style="stop-color:#4DE1FF"/>
</linearGradient>
<polygon style="fill:url(#SVGID_1_);" points="135.939,462.211 15.859,255.996 135.939,49.781 376.037,49.781 496.133,255.996 
	376.037,462.211 "/>
<path style="fill:#297BCC;" d="M509.839,248.017L389.758,41.802c-2.855-4.902-8.042-7.884-13.721-7.884H135.939
	c-5.679,0-10.866,2.982-13.721,7.884L2.153,248.017c-2.871,4.949-2.871,11.025,0,15.958L122.218,470.19
	c2.855,4.902,8.042,7.884,13.721,7.884h240.114c5.663,0,10.85-2.982,13.705-7.884l120.081-206.215
	C512.71,259.042,512.71,252.95,509.839,248.017z M366.916,446.348H145.06L34.212,255.996L145.044,65.644h221.871l110.848,190.352
	L366.916,446.348z"/>
<g>
</g>
<g>
</g>
<g>
</g>
<g>
</g>
<g>
</g>
<g>
</g>
<g>
</g>
<g>
</g>
<g>
</g>
<g>
</g>
<g>
</g>
<g>
</g>
<g>
</g>
<g>
</g>
<g>
</g>
</svg>
