<?xml version="1.0" encoding="iso-8859-1"?>
<!-- Generator: Adobe Illustrator 19.0.0, SVG Export Plug-In . SVG Version: 6.00 Build 0)  -->
<svg version="1.1" id="Layer_1" xmlns="http://www.w3.org/2000/svg" xmlns:xlink="http://www.w3.org/1999/xlink" x="0px" y="0px"
	 viewBox="0 0 512 512" style="enable-background:new 0 0 512 512;" xml:space="preserve">
<rect x="304" y="128" style="fill:#FFFFFF;" width="160" height="352"/>
<linearGradient id="SVGID_1_" gradientUnits="userSpaceOnUse" x1="-37.9375" y1="639.3125" x2="-37.9375" y2="653.3125" gradientTransform="matrix(16 0 0 -16 735 10581)">
	<stop  offset="0" style="stop-color:#4DC4FF"/>
	<stop  offset="1" style="stop-color:#4DE1FF"/>
</linearGradient>
<rect x="48" y="128" style="fill:url(#SVGID_1_);" width="160" height="224"/>
<g>
	<path style="fill:#297BCC;" d="M464,112H304c-4.208,0-8.336,1.712-11.312,4.688S288,123.792,288,128v352
		c0,4.208,1.712,8.336,4.688,11.312S299.792,496,304,496h160c4.208,0,8.336-1.712,11.312-4.688S480,484.208,480,480V128
		c0-4.208-1.712-8.336-4.688-11.312C472.336,113.712,468.208,112,464,112z M448,464H320V144h128V464z"/>
	<path style="fill:#297BCC;" d="M208,112H48c-4.208,0-8.336,1.712-11.312,4.688S32,123.792,32,128v224
		c0,4.208,1.712,8.336,4.688,11.312S43.792,368,48,368h160c4.208,0,8.336-1.712,11.312-4.688S224,356.208,224,352V128
		c0-4.208-1.712-8.336-4.688-11.312C216.336,113.712,212.208,112,208,112z M192,336H64V144h128V336z"/>
	<rect y="16" style="fill:#297BCC;" width="512" height="32"/>
</g>
<g>
</g>
<g>
</g>
<g>
</g>
<g>
</g>
<g>
</g>
<g>
</g>
<g>
</g>
<g>
</g>
<g>
</g>
<g>
</g>
<g>
</g>
<g>
</g>
<g>
</g>
<g>
</g>
<g>
</g>
</svg>
