<?xml version="1.0" encoding="iso-8859-1"?>
<!-- Generator: Adobe Illustrator 19.0.0, SVG Export Plug-In . SVG Version: 6.00 Build 0)  -->
<svg version="1.1" id="Layer_1" xmlns="http://www.w3.org/2000/svg" xmlns:xlink="http://www.w3.org/1999/xlink" x="0px" y="0px"
	 viewBox="0 0 512 512" style="enable-background:new 0 0 512 512;" xml:space="preserve">
<linearGradient id="SVGID_1_" gradientUnits="userSpaceOnUse" x1="-29.9375" y1="623.3125" x2="-29.9375" y2="633.3125" gradientTransform="matrix(16 0 0 -16 735 10309)">
	<stop  offset="0" style="stop-color:#4DC4FF"/>
	<stop  offset="1" style="stop-color:#4DE1FF"/>
</linearGradient>
<rect x="176" y="176" style="fill:url(#SVGID_1_);" width="160" height="160"/>
<g>
	<polygon style="fill:#297BCC;" points="480,224 512,224 512,160 448,160 448,192 480,192 	"/>
	<rect x="480" y="256" style="fill:#297BCC;" width="32" height="64"/>
	<polygon style="fill:#297BCC;" points="480,448 480,480 448,480 448,512 512,512 512,448 	"/>
	<rect x="256" y="480" style="fill:#297BCC;" width="64" height="32"/>
	<rect x="352" y="480" style="fill:#297BCC;" width="64" height="32"/>
	<polygon style="fill:#297BCC;" points="192,448 160,448 160,512 224,512 224,480 224,480 192,480 	"/>
	<rect x="480" y="352" style="fill:#297BCC;" width="32" height="64"/>
	<polygon style="fill:#297BCC;" points="320,64 352,64 352,0 288,0 288,32 320,32 	"/>
	<rect x="96" style="fill:#297BCC;" width="64" height="32"/>
	<rect x="192" style="fill:#297BCC;" width="64" height="32"/>
	<polygon style="fill:#297BCC;" points="0,64 32,64 32,32 64,32 64,0 64,0 0,0 	"/>
	<rect y="96" style="fill:#297BCC;" width="32" height="64"/>
	<path style="fill:#297BCC;" d="M352,96h-32v64H176c-4.208,0-8.336,1.712-11.312,4.688S160,171.792,160,176v144H96v32h64v64h32v-64
		h144c4.208,0,8.336-1.712,11.312-4.688S352,340.208,352,336V192h64v-32h-64V96z M320,320H192V192h128V320z"/>
	<polygon style="fill:#297BCC;" points="32,288 0,288 0,352 64,352 64,320 64,320 32,320 	"/>
	<rect y="192" style="fill:#297BCC;" width="32" height="64"/>
</g>
<g>
</g>
<g>
</g>
<g>
</g>
<g>
</g>
<g>
</g>
<g>
</g>
<g>
</g>
<g>
</g>
<g>
</g>
<g>
</g>
<g>
</g>
<g>
</g>
<g>
</g>
<g>
</g>
<g>
</g>
</svg>
