<?xml version="1.0" encoding="iso-8859-1"?>
<!-- Generator: Adobe Illustrator 19.0.0, SVG Export Plug-In . SVG Version: 6.00 Build 0)  -->
<svg version="1.1" id="Layer_1" xmlns="http://www.w3.org/2000/svg" xmlns:xlink="http://www.w3.org/1999/xlink" x="0px" y="0px"
	 viewBox="0 0 512 512" style="enable-background:new 0 0 512 512;" xml:space="preserve">
<polygon style="fill:#FFFFFF;" points="176,176 336,176 336,16 16,16 16,336 176,336 "/>
<linearGradient id="SVGID_1_" gradientUnits="userSpaceOnUse" x1="-24.9375" y1="613.3125" x2="-24.9375" y2="633.3125" gradientTransform="matrix(16 0 0 -16 735 10309)">
	<stop  offset="0" style="stop-color:#4DC4FF"/>
	<stop  offset="1" style="stop-color:#4DE1FF"/>
</linearGradient>
<rect x="176" y="176" style="fill:url(#SVGID_1_);" width="320" height="320"/>
<path style="fill:#297BCC;" d="M507.312,164.688C504.336,161.712,500.208,160,496,160H352V16c0-4.208-1.712-8.336-4.688-11.312
	C344.336,1.712,340.208,0,336,0H16C11.792,0,7.664,1.712,4.688,4.688S0,11.792,0,16v320c0,4.208,1.712,8.336,4.688,11.312
	S11.792,352,16,352h144v144c0,4.208,1.712,8.336,4.688,11.312S171.792,512,176,512h320c4.208,0,8.336-1.712,11.312-4.688
	S512,500.208,512,496V176C512,171.792,510.288,167.664,507.312,164.688z M164.688,164.688C161.712,167.664,160,171.792,160,176v144
	H32V32h288v128H176C171.792,160,167.664,161.712,164.688,164.688z M192,480V336l0,0V192h144l0,0h144v288H192z"/>
<g>
</g>
<g>
</g>
<g>
</g>
<g>
</g>
<g>
</g>
<g>
</g>
<g>
</g>
<g>
</g>
<g>
</g>
<g>
</g>
<g>
</g>
<g>
</g>
<g>
</g>
<g>
</g>
<g>
</g>
</svg>
