<?xml version="1.0" encoding="iso-8859-1"?>
<!-- Generator: Adobe Illustrator 19.0.0, SVG Export Plug-In . SVG Version: 6.00 Build 0)  -->
<svg version="1.1" id="Layer_1" xmlns="http://www.w3.org/2000/svg" xmlns:xlink="http://www.w3.org/1999/xlink" x="0px" y="0px"
	 viewBox="0 0 480 480" style="enable-background:new 0 0 480 480;" xml:space="preserve">
<linearGradient id="SVGID_1_" gradientUnits="userSpaceOnUse" x1="-54.4375" y1="601.3125" x2="-54.4375" y2="623.3125" gradientTransform="matrix(16 0 0 -16 975 10037)">
	<stop  offset="0" style="stop-color:#4DC4FF"/>
	<stop  offset="1" style="stop-color:#4DE1FF"/>
</linearGradient>
<polygon style="fill:url(#SVGID_1_);" points="16,416 192,240 16,64 "/>
<polygon style="fill:#FFFFFF;" points="464,416 288,240 464,64 "/>
<g>
	<rect x="224" y="400" style="fill:#297BCC;" width="32" height="64"/>
	<rect x="224" y="304" style="fill:#297BCC;" width="32" height="64"/>
	<rect x="224" y="208" style="fill:#297BCC;" width="32" height="64"/>
	<rect x="224" y="16" style="fill:#297BCC;" width="32" height="64"/>
	<rect x="224" y="112" style="fill:#297BCC;" width="32" height="64"/>
	<path style="fill:#297BCC;" d="M27.312,52.688c-4.576-4.576-11.456-5.952-17.44-3.472C3.904,51.696,0,57.536,0,64v352
		c0,6.464,3.904,12.304,9.872,14.784c5.984,2.48,12.864,1.104,17.44-3.472l176-176C206.288,248.336,208,244.208,208,240
		s-1.712-8.336-4.688-11.312L27.312,52.688z M32,377.376V102.624L169.376,240L32,377.376z"/>
	<path style="fill:#297BCC;" d="M470.128,49.216c-5.984-2.48-12.864-1.104-17.44,3.472l-176,176
		C273.712,231.664,272,235.792,272,240c0,4.208,1.712,8.336,4.688,11.312l176,176c4.576,4.576,11.456,5.952,17.44,3.472
		c5.968-2.48,9.872-8.32,9.872-14.784V64C480,57.536,476.096,51.696,470.128,49.216z M448,377.376L310.624,240L448,102.624V377.376z
		"/>
</g>
<g>
</g>
<g>
</g>
<g>
</g>
<g>
</g>
<g>
</g>
<g>
</g>
<g>
</g>
<g>
</g>
<g>
</g>
<g>
</g>
<g>
</g>
<g>
</g>
<g>
</g>
<g>
</g>
<g>
</g>
</svg>
