<?xml version="1.0" encoding="iso-8859-1"?>
<!-- Generator: Adobe Illustrator 19.0.0, SVG Export Plug-In . SVG Version: 6.00 Build 0)  -->
<svg version="1.1" id="Layer_1" xmlns="http://www.w3.org/2000/svg" xmlns:xlink="http://www.w3.org/1999/xlink" x="0px" y="0px"
	 viewBox="0 0 512 512" style="enable-background:new 0 0 512 512;" xml:space="preserve">
<g>
	<path style="fill:#4DA6FF;" d="M256,80C123.664,80,16,158.976,16,256s107.664,176,240,176s240-78.976,240-176S388.336,80,256,80z"
		/>
</g>
<g>
	<path style="fill:#4DA7FF;" d="M256,429.872c-131.696,0-238.928-78.528-238.928-174.928C17.072,158.528,124.304,80,256,80
		s238.928,78.528,238.928,174.928C494.928,351.344,387.696,429.872,256,429.872z"/>
</g>
<g>
	<path style="fill:#4DA8FF;" d="M256,427.728c-131.056,0-237.872-78.08-237.872-173.872S124.944,80,256,80
		s237.872,78.08,237.872,173.872S387.056,427.728,256,427.728z"/>
</g>
<g>
	<path style="fill:#4DA9FF;" d="M256,425.6c-130.416,0-236.8-77.632-236.8-172.8C19.2,157.632,125.584,80,256,80
		s236.8,77.632,236.8,172.8S386.416,425.6,256,425.6z"/>
</g>
<g>
	<path style="fill:#4DAAFF;" d="M256,423.472c-129.776,0-235.728-77.2-235.728-171.728C20.272,157.2,126.224,80,256,80
		s235.728,77.2,235.728,171.728C491.728,346.272,385.776,423.472,256,423.472z"/>
</g>
<g>
	<path style="fill:#4DABFF;" d="M256,421.328c-129.12,0-234.672-76.752-234.672-170.672C21.328,156.752,126.88,80,256,80
		s234.672,76.752,234.672,170.672C490.672,344.576,385.12,421.328,256,421.328z"/>
</g>
<g>
	<path style="fill:#4DACFF;" d="M256,419.2c-128.48,0-233.6-76.304-233.6-169.6S127.52,80,256,80s233.6,76.304,233.6,169.6
		S384.48,419.2,256,419.2z"/>
</g>
<g>
	<path style="fill:#4DADFF;" d="M256,417.072c-127.84,0-232.528-75.856-232.528-168.528C23.472,155.856,128.16,80,256,80
		s232.528,75.856,232.528,168.528S383.84,417.072,256,417.072z"/>
</g>
<g>
	<path style="fill:#4DAEFF;" d="M256,414.928c-127.2,0-231.472-75.424-231.472-167.472C24.528,155.424,128.8,80,256,80
		s231.472,75.424,231.472,167.472S383.2,414.928,256,414.928z"/>
</g>
<g>
	<path style="fill:#4DAFFF;" d="M256,412.8c-126.56,0-230.4-74.976-230.4-166.4S129.44,80,256,80s230.4,74.976,230.4,166.4
		S382.56,412.8,256,412.8z"/>
</g>
<g>
	<path style="fill:#4DB0FF;" d="M256,410.672c-125.904,0-229.328-74.528-229.328-165.328C26.672,154.528,130.096,80,256,80
		s229.328,74.528,229.328,165.328S381.904,410.672,256,410.672z"/>
</g>
<g>
	<path style="fill:#4DB1FF;" d="M256,408.528c-125.264,0-228.272-74.08-228.272-164.272C27.728,154.096,130.736,80,256,80
		s228.272,74.096,228.272,164.272S381.264,408.528,256,408.528z"/>
</g>
<g>
	<path style="fill:#4DB2FF;" d="M256,406.4c-124.624,0-227.2-73.648-227.2-163.2C28.8,153.648,131.376,80,256,80
		s227.2,73.648,227.2,163.2S380.624,406.4,256,406.4z"/>
</g>
<g>
	<path style="fill:#4DB3FF;" d="M256,404.272c-123.984,0-226.128-73.2-226.128-162.128S132.016,80,256,80
		s226.128,73.2,226.128,162.128S379.984,404.272,256,404.272z"/>
</g>
<g>
	<path style="fill:#4DB4FF;" d="M256,402.128c-123.344,0-225.072-72.752-225.072-161.072C30.928,152.752,132.656,80,256,80
		s225.072,72.752,225.072,161.072C481.072,329.376,379.344,402.128,256,402.128z"/>
</g>
<g>
	<path style="fill:#4DB5FF;" d="M256,400c-122.688,0-224-72.32-224-160S133.312,80,256,80s224,72.32,224,160S378.688,400,256,400z"
		/>
</g>
<g>
	<path style="fill:#4DB6FF;" d="M256,397.872c-122.048,0-222.928-71.872-222.928-158.928S133.952,80,256,80
		s222.928,71.872,222.928,158.928S378.048,397.872,256,397.872z"/>
</g>
<g>
	<path style="fill:#4DB7FF;" d="M256,395.728c-121.408,0-221.872-71.424-221.872-157.872S134.592,80,256,80
		s221.872,71.424,221.872,157.872S377.408,395.728,256,395.728z"/>
</g>
<g>
	<path style="fill:#4DB8FF;" d="M256,393.6c-120.768,0-220.8-70.976-220.8-156.8C35.2,150.976,135.232,80,256,80
		s220.8,70.976,220.8,156.8S376.768,393.6,256,393.6z"/>
</g>
<g>
	<path style="fill:#4DB9FF;" d="M256,391.472c-120.128,0-219.728-70.544-219.728-155.728S135.872,80,256,80
		s219.728,70.544,219.728,155.728S376.128,391.472,256,391.472z"/>
</g>
<g>
	<path style="fill:#4DBAFF;" d="M256,389.328c-119.472,0-218.672-70.096-218.672-154.672C37.328,150.096,136.528,80,256,80
		s218.672,70.096,218.672,154.672C474.672,319.232,375.472,389.328,256,389.328z"/>
</g>
<g>
	<path style="fill:#4DBBFF;" d="M256,387.2c-118.832,0-217.6-69.648-217.6-153.6C38.4,149.648,137.168,80,256,80
		s217.6,69.648,217.6,153.6S374.832,387.2,256,387.2z"/>
</g>
<g>
	<path style="fill:#4DBCFF;" d="M256,385.072c-118.192,0-216.528-69.2-216.528-152.528C39.472,149.2,137.808,80,256,80
		s216.528,69.2,216.528,152.528S374.192,385.072,256,385.072z"/>
</g>
<g>
	<path style="fill:#4DBDFF;" d="M256,382.928c-117.552,0-215.472-68.768-215.472-151.472S138.448,80,256,80
		s215.472,68.768,215.472,151.472S373.552,382.928,256,382.928z"/>
</g>
<g>
	<path style="fill:#4DBEFF;" d="M256,380.8c-116.912,0-214.4-68.32-214.4-150.4C41.6,148.32,139.088,80,256,80
		s214.4,68.32,214.4,150.4S372.912,380.8,256,380.8z"/>
</g>
<g>
	<path style="fill:#4DBFFF;" d="M256,378.672c-116.256,0-213.328-67.872-213.328-149.328C42.672,147.872,139.744,80,256,80
		s213.328,67.872,213.328,149.328S372.256,378.672,256,378.672z"/>
</g>
<g>
	<path style="fill:#4DC0FF;" d="M256,376.528c-115.616,0-212.272-67.424-212.272-148.272S140.384,80,256,80
		s212.272,67.424,212.272,148.272S371.616,376.528,256,376.528z"/>
</g>
<g>
	<path style="fill:#4DC1FF;" d="M256,374.4c-114.976,0-211.2-66.992-211.2-147.2C44.8,146.992,141.024,80,256,80
		s211.2,66.992,211.2,147.2S370.976,374.4,256,374.4z"/>
</g>
<g>
	<path style="fill:#4DC2FF;" d="M256,372.272c-114.336,0-210.128-66.544-210.128-146.128C45.872,146.544,141.664,80,256,80
		s210.128,66.544,210.128,146.128C466.128,305.728,370.336,372.272,256,372.272z"/>
</g>
<g>
	<path style="fill:#4DC3FF;" d="M256,370.128c-113.696,0-209.072-66.096-209.072-145.072C46.928,146.096,142.304,80,256,80
		s209.072,66.096,209.072,145.072C465.072,304.032,369.696,370.128,256,370.128z"/>
</g>
<g>
	<g>
		<path style="fill:#4DC4FF;" d="M256,368c-113.04,0-208-65.664-208-144S142.96,80,256,80s208,65.664,208,144S369.04,368,256,368z"
			/>
	</g>
	<g>
		<path style="fill:#4DC4FF;" d="M256,365.872c-112.4,0-206.928-65.216-206.928-142.928C49.072,145.216,143.6,80,256,80
			s206.928,65.216,206.928,142.928C462.928,300.656,368.4,365.872,256,365.872z"/>
	</g>
</g>
<g>
	<path style="fill:#4DC5FF;" d="M256,363.728c-111.76,0-205.872-64.768-205.872-141.872S144.24,80,256,80
		s205.872,64.768,205.872,141.872S367.76,363.728,256,363.728z"/>
</g>
<g>
	<path style="fill:#4DC6FF;" d="M256,361.6c-111.12,0-204.8-64.32-204.8-140.8S144.88,80,256,80s204.8,64.32,204.8,140.8
		S367.12,361.6,256,361.6z"/>
</g>
<g>
	<path style="fill:#4DC7FF;" d="M256,359.472c-110.48,0-203.728-63.888-203.728-139.728S145.52,80,256,80
		s203.728,63.888,203.728,139.728S366.48,359.472,256,359.472z"/>
</g>
<g>
	<path style="fill:#4DC8FF;" d="M256,357.328c-109.824,0-202.672-63.44-202.672-138.672C53.328,143.44,146.176,80,256,80
		s202.672,63.44,202.672,138.672C458.672,293.888,365.824,357.328,256,357.328z"/>
</g>
<g>
	<path style="fill:#4DC9FF;" d="M256,355.2c-109.184,0-201.6-62.992-201.6-137.6S146.816,80,256,80s201.6,62.992,201.6,137.6
		S365.184,355.2,256,355.2z"/>
</g>
<g>
	<path style="fill:#4DCAFF;" d="M256,353.072c-108.544,0-200.528-62.544-200.528-136.528S147.456,80,256,80
		s200.528,62.544,200.528,136.528S364.544,353.072,256,353.072z"/>
</g>
<g>
	<path style="fill:#4DCBFF;" d="M256,350.928c-107.904,0-199.472-62.112-199.472-135.472C56.528,142.112,148.096,80,256,80
		s199.472,62.112,199.472,135.472S363.904,350.928,256,350.928z"/>
</g>
<g>
	<path style="fill:#4DCCFF;" d="M256,348.8c-107.264,0-198.4-61.664-198.4-134.4S148.736,80,256,80s198.4,61.664,198.4,134.4
		S363.264,348.8,256,348.8z"/>
</g>
<g>
	<path style="fill:#4DCDFF;" d="M256,346.672c-106.608,0-197.328-61.216-197.328-133.328S149.392,80,256,80
		s197.328,61.216,197.328,133.328S362.608,346.672,256,346.672z"/>
</g>
<g>
	<path style="fill:#4DCEFF;" d="M256,344.528c-105.968,0-196.272-60.768-196.272-132.272C59.728,140.768,150.032,80,256,80
		s196.272,60.768,196.272,132.272C452.272,283.76,361.968,344.528,256,344.528z"/>
</g>
<g>
	<path style="fill:#4DCFFF;" d="M256,342.4c-105.328,0-195.2-60.336-195.2-131.2C60.8,140.336,150.672,80,256,80
		s195.2,60.336,195.2,131.2S361.328,342.4,256,342.4z"/>
</g>
<g>
	<path style="fill:#4DD0FF;" d="M256,340.272c-104.688,0-194.128-59.888-194.128-130.128S151.312,80,256,80
		s194.128,59.888,194.128,130.128S360.688,340.272,256,340.272z"/>
</g>
<g>
	<path style="fill:#4DD1FF;" d="M256,338.128c-104.048,0-193.072-59.44-193.072-129.072C62.928,139.44,151.952,80,256,80
		s193.072,59.44,193.072,129.072C449.072,278.688,360.048,338.128,256,338.128z"/>
</g>
<g>
	<path style="fill:#4DD2FF;" d="M256,336c-103.392,0-192-59.008-192-128S152.608,80,256,80s192,59.008,192,128S359.392,336,256,336z
		"/>
</g>
<g>
	<path style="fill:#4DD3FF;" d="M256,333.872c-102.752,0-190.928-58.56-190.928-126.928C65.072,138.56,153.248,80,256,80
		s190.928,58.56,190.928,126.928C446.928,275.312,358.752,333.872,256,333.872z"/>
</g>
<g>
	<path style="fill:#4DD4FF;" d="M256,331.728c-102.112,0-189.872-58.112-189.872-125.872S153.888,80,256,80
		s189.872,58.112,189.872,125.872S358.112,331.728,256,331.728z"/>
</g>
<g>
	<path style="fill:#4DD5FF;" d="M256,329.6c-101.472,0-188.8-57.664-188.8-124.8S154.528,80,256,80s188.8,57.664,188.8,124.8
		S357.472,329.6,256,329.6z"/>
</g>
<g>
	<path style="fill:#4DD6FF;" d="M256,327.472c-100.832,0-187.728-57.232-187.728-123.728S155.168,80,256,80
		s187.728,57.232,187.728,123.728S356.832,327.472,256,327.472z"/>
</g>
<g>
	<path style="fill:#4DD7FF;" d="M256,325.328c-100.176,0-186.672-56.784-186.672-122.672S155.824,80,256,80
		s186.672,56.784,186.672,122.672S356.176,325.328,256,325.328z"/>
</g>
<g>
	<path style="fill:#4DD8FF;" d="M256,323.2c-99.536,0-185.6-56.336-185.6-121.6C70.4,136.336,156.464,80,256,80
		s185.6,56.336,185.6,121.6S355.536,323.2,256,323.2z"/>
</g>
<g>
	<path style="fill:#4DD9FF;" d="M256,321.072c-98.896,0-184.528-55.888-184.528-120.528C71.472,135.888,157.104,80,256,80
		s184.528,55.888,184.528,120.528S354.896,321.072,256,321.072z"/>
</g>
<g>
	<path style="fill:#4DDAFF;" d="M256,318.928c-98.256,0-183.472-55.456-183.472-119.472S157.744,80,256,80
		s183.472,55.456,183.472,119.472S354.256,318.928,256,318.928z"/>
</g>
<g>
	<path style="fill:#4DDBFF;" d="M256,316.8c-97.616,0-182.4-55.008-182.4-118.4S158.384,80,256,80s182.4,55.008,182.4,118.4
		S353.616,316.8,256,316.8z"/>
</g>
<g>
	<path style="fill:#4DDCFF;" d="M256,314.672c-96.96,0-181.328-54.56-181.328-117.328C74.672,134.56,159.04,80,256,80
		s181.328,54.56,181.328,117.328C437.328,260.112,352.96,314.672,256,314.672z"/>
</g>
<g>
	<path style="fill:#4DDDFF;" d="M256,312.528c-96.32,0-180.272-54.112-180.272-116.272S159.68,80,256,80
		s180.272,54.112,180.272,116.272S352.32,312.528,256,312.528z"/>
</g>
<g>
	<path style="fill:#4DDEFF;" d="M256,310.4c-95.68,0-179.2-53.68-179.2-115.2S160.32,80,256,80s179.2,53.68,179.2,115.2
		S351.68,310.4,256,310.4z"/>
</g>
<g>
	<path style="fill:#4DDFFF;" d="M256,308.272c-95.04,0-178.128-53.232-178.128-114.128S160.96,80,256,80
		s178.128,53.232,178.128,114.128S351.04,308.272,256,308.272z"/>
</g>
<g>
	<path style="fill:#4DE0FF;" d="M256,306.128c-94.4,0-177.072-52.784-177.072-113.072C78.928,132.784,161.6,80,256,80
		s177.072,52.784,177.072,113.072C433.072,253.344,350.4,306.128,256,306.128z"/>
</g>
<g>
	<path style="fill:#4DE1FF;" d="M256,304c-93.744,0-176-52.336-176-112S162.256,80,256,80s176,52.336,176,112S349.744,304,256,304z"
		/>
</g>
<g>
	
		<linearGradient id="SVGID_1_" gradientUnits="userSpaceOnUse" x1="-29.9375" y1="608.1425" x2="-29.9375" y2="617.9815" gradientTransform="matrix(16 0 0 -16 735 10037)">
		<stop  offset="0" style="stop-color:#4DA6FF"/>
		<stop  offset="1" style="stop-color:#4DC3FF"/>
	</linearGradient>
	<path style="fill:url(#SVGID_1_);" d="M256,304c-81.088,0-144-43.008-144-80s62.912-80,144-80s144,43.008,144,80
		S337.088,304,256,304z"/>
</g>
<g>
	<path style="fill:#297BCC;" d="M435.088,118.704C388.496,84.592,325.36,64.032,256,64c-69.36,0.032-132.496,20.592-179.088,54.704
		C30.432,152.704,0,201.296,0,256c0,54.688,30.432,103.296,76.912,137.296C123.504,427.408,186.64,447.968,256,448
		c69.36-0.032,132.496-20.592,179.088-54.704C481.568,359.296,512,310.688,512,256C512,201.296,481.568,152.704,435.088,118.704z
		 M416.16,367.488C375.84,397.104,318.992,416.032,256,416c-62.992,0.032-119.84-18.896-160.16-48.512
		C55.408,337.728,32,298.336,32,256s23.408-81.728,63.84-111.488C136.16,114.896,193.008,95.968,256,96
		c62.992-0.032,119.84,18.896,160.16,48.512C456.592,174.272,480,213.664,480,256S456.592,337.728,416.16,367.488z"/>
	<path style="fill:#297BCC;" d="M337.888,209.328C317.136,199.52,289.488,192,256,192c-38.272,0-68.912,9.808-90.368,21.664
		c-10.752,5.952-19.232,12.352-25.536,18.752c-3.152,3.232-5.776,6.432-7.92,9.984c-2.048,3.6-4.032,7.44-4.176,13.6
		c0.144,6.16,2.128,10,4.176,13.6c7.424,11.872,21.104,22.992,41.936,33.072C194.864,312.48,222.512,320,256,320
		c38.272,0,68.912-9.808,90.368-21.664c10.752-5.952,19.232-12.352,25.536-18.752c3.152-3.232,5.776-6.432,7.92-9.984
		c2.048-3.6,4.032-7.44,4.176-13.6c-0.144-6.16-2.128-10-4.176-13.6C372.4,230.528,358.72,219.408,337.888,209.328z
		 M324.432,273.632C307.856,281.504,284.8,288,256,288c-32.752,0-58.128-8.416-74.912-17.68c-8.368-4.608-14.576-9.472-18.16-13.168
		l-1.008-1.232c4-4.32,12.88-11.712,25.648-17.584C204.144,230.496,227.2,224,256,224c32.752,0,58.128,8.416,74.912,17.68
		c8.368,4.608,14.576,9.472,18.16,13.168l1.008,1.232C346.096,260.384,337.2,267.776,324.432,273.632z"/>
</g>
<g>
</g>
<g>
</g>
<g>
</g>
<g>
</g>
<g>
</g>
<g>
</g>
<g>
</g>
<g>
</g>
<g>
</g>
<g>
</g>
<g>
</g>
<g>
</g>
<g>
</g>
<g>
</g>
<g>
</g>
</svg>
