<?xml version="1.0" encoding="iso-8859-1"?>
<!-- Generator: Adobe Illustrator 19.0.0, SVG Export Plug-In . SVG Version: 6.00 Build 0)  -->
<svg version="1.1" id="Layer_1" xmlns="http://www.w3.org/2000/svg" xmlns:xlink="http://www.w3.org/1999/xlink" x="0px" y="0px"
	 viewBox="0 0 512 512" style="enable-background:new 0 0 512 512;" xml:space="preserve">
<linearGradient id="SVGID_1_" gradientUnits="userSpaceOnUse" x1="-29.9361" y1="618.4094" x2="-29.9361" y2="638.2075" gradientTransform="matrix(15.9925 0 0 -15.9925 734.6327 10304.2256)">
	<stop  offset="0" style="stop-color:#4DC4FF"/>
	<stop  offset="1" style="stop-color:#4DE1FF"/>
</linearGradient>
<polygon style="fill:url(#SVGID_1_);" points="414.19,256 255.88,414.31 97.57,256 255.88,97.69 "/>
<g>
	<path style="fill:#297BCC;" d="M156.791,456.754l-14.201,28.659c4.51,2.239,9.116,4.35,13.77,6.333
		c16.12,6.829,33.089,12.058,50.696,15.465l6.093-31.393c-15.385-2.991-30.21-7.548-44.315-13.53
		C164.755,460.56,160.741,458.705,156.791,456.754z"/>
	<path style="fill:#297BCC;" d="M35.519,295.805C33.2,282.883,31.985,269.594,31.985,256c0-6.637,0.288-13.21,0.864-19.687
		l-31.857-2.783C0.336,240.935,0,248.436,0,256c0,15.497,1.391,30.706,4.046,45.467L35.519,295.805L35.519,295.805z"/>
	<path style="fill:#297BCC;" d="M49.593,343.047c-2.543-5.981-4.814-12.106-6.829-18.327l-30.434,9.835
		c2.303,7.133,4.91,14.121,7.82,20.966c5.997,14.169,13.242,27.667,21.574,40.397l26.755-17.528
		C61.171,367.244,54.838,355.425,49.593,343.047z"/>
	<path style="fill:#297BCC;" d="M86.455,402.203l-24.197,20.918c4.094,4.734,8.348,9.308,12.778,13.738
		c11.643,11.643,24.389,22.166,38.094,31.409l17.896-26.516c-11.994-8.092-23.157-17.304-33.36-27.507
		C93.764,410.376,90.038,406.362,86.455,402.203z"/>
	<path style="fill:#297BCC;" d="M383.708,439.722c-12.698,8.86-26.356,16.456-40.781,22.549c-3.982,1.695-8.028,3.262-12.122,4.718
		l10.731,30.13c4.686-1.663,9.308-3.47,13.866-5.405c16.488-6.989,32.097-15.657,46.602-25.78L383.708,439.722L383.708,439.722z"/>
	<path style="fill:#297BCC;" d="M445.215,375.384c-3.215,5.07-6.621,10.011-10.219,14.793c-6.397,8.508-13.37,16.552-20.886,24.069
		l-7.117,6.813l21.606,23.589l8.124-7.788c8.572-8.572,16.552-17.752,23.845-27.475c4.11-5.469,7.996-11.099,11.675-16.904
		L445.215,375.384L445.215,375.384z"/>
	<path style="fill:#297BCC;" d="M255.88,479.895c-4.414,0-8.796-0.128-13.146-0.384l-1.855,31.937
		c4.974,0.288,9.963,0.432,15.001,0.432c18.088,0,35.775-1.887,52.839-5.485l-6.589-31.297
		C287.209,478.232,271.745,479.895,255.88,479.895z"/>
	<path style="fill:#297BCC;" d="M439.106,77.572C393.528,30.458,329.222,0.088,255.88,0.12
		C159.621,0.152,75.661,53.551,31.985,132.378V80.082c0-8.828-7.165-15.993-15.993-15.993S0,71.255,0,80.082v95.955
		c0,4.206,1.711,8.332,4.686,11.307s7.101,4.686,11.307,4.686h95.955c8.828,0,15.993-7.165,15.993-15.993
		c0-8.828-7.165-15.992-15.993-15.992H53.767C89.814,84.464,166.85,32.073,255.88,32.105c64.434,0.032,120.2,26.42,160.245,67.712
		c40.013,41.293,63.906,97.41,63.89,156.327c0,28.675-5.629,58.021-17.864,86.903c-3.438,8.124,0.352,17.512,8.492,20.966
		c8.14,3.438,17.512-0.352,20.966-8.492c13.914-32.817,20.39-66.529,20.39-99.377C511.984,188.56,484.701,124.654,439.106,77.572z"
		/>
	<path style="fill:#297BCC;" d="M255.88,430.302c4.206,0,8.332-1.711,11.307-4.686l158.326-158.31
		c2.975-2.975,4.686-7.101,4.686-11.307c0-4.206-1.711-8.332-4.686-11.307L267.187,86.384c-6.253-6.253-16.376-6.253-22.613,0
		L86.248,244.693c-2.975,2.975-4.67,7.101-4.67,11.307c0,4.206,1.711,8.332,4.686,11.307l158.326,158.31
		C247.548,428.607,251.674,430.302,255.88,430.302z M255.88,120.304L391.576,256L255.88,391.696L120.184,256L255.88,120.304z"/>
</g>
<g>
</g>
<g>
</g>
<g>
</g>
<g>
</g>
<g>
</g>
<g>
</g>
<g>
</g>
<g>
</g>
<g>
</g>
<g>
</g>
<g>
</g>
<g>
</g>
<g>
</g>
<g>
</g>
<g>
</g>
</svg>
