<?xml version="1.0" encoding="iso-8859-1"?>
<!-- Generator: Adobe Illustrator 19.0.0, SVG Export Plug-In . SVG Version: 6.00 Build 0)  -->
<svg version="1.1" id="Layer_1" xmlns="http://www.w3.org/2000/svg" xmlns:xlink="http://www.w3.org/1999/xlink" x="0px" y="0px"
	 viewBox="0 0 512.008 512.008" style="enable-background:new 0 0 512.008 512.008;" xml:space="preserve">
<linearGradient id="SVGID_1_" gradientUnits="userSpaceOnUse" x1="-39.9336" y1="625.3204" x2="-39.9336" y2="643.3204" gradientTransform="matrix(16 0 0 -16 734.9412 10309.1338)">
	<stop  offset="0" style="stop-color:#4DC4FF"/>
	<stop  offset="1" style="stop-color:#4DE1FF"/>
</linearGradient>
<rect x="16.004" y="16.008" style="fill:url(#SVGID_1_);" width="160" height="288"/>
<rect x="208.004" y="336.008" style="fill:#FFFFFF;" width="288" height="160"/>
<g>
	<path style="fill:#297BCC;" d="M192.004,16.008c0-4.208-1.712-8.336-4.688-11.312s-7.104-4.688-11.312-4.688h-160
		c-4.208,0-8.336,1.712-11.312,4.688S0.004,11.8,0.004,16.008v288c0,4.208,1.712,8.336,4.688,11.312s7.104,4.688,11.312,4.688l0,0
		h160c4.208,0,8.336-1.712,11.312-4.688s4.688-7.104,4.688-11.312V16.008z M160.004,288.008h-128v-256h128V288.008z"/>
	<path style="fill:#297BCC;" d="M507.316,324.696c-2.976-2.976-7.104-4.688-11.312-4.688h-288c-4.208,0-8.336,1.712-11.312,4.688
		s-4.688,7.104-4.688,11.312v160c0,4.208,1.712,8.336,4.688,11.312s7.104,4.688,11.312,4.688h288c4.208,0,8.336-1.712,11.312-4.688
		s4.688-7.104,4.688-11.312v-160C512.004,331.8,510.292,327.672,507.316,324.696z M224.004,480.008v-128h256v128H224.004z"/>
	<path style="fill:#297BCC;" d="M506.98,196.36c-6.432-6.064-16.56-5.76-22.624,0.672l0,0l-36.352,38.56v-91.584
		c-0.016-44.192-35.808-79.984-80-80h-88.288l35.776-36.864c6.16-6.336,6-16.464-0.336-22.624s-16.464-6-22.624,0.336l-64,65.936
		c-2.992,3.088-4.592,7.12-4.528,11.392s1.792,8.272,4.864,11.248l64,62.064c6.336,6.144,16.48,6,22.624-0.352s6-16.48-0.352-22.624
		l0,0l-37.648-36.512h90.512c26.496,0.048,47.952,21.504,48,48v91.584l-36.352-38.56c-6.064-6.432-16.192-6.72-22.624-0.672
		c-6.432,6.064-6.72,16.192-0.672,22.624l64,67.888c0.048,0.064,0.128,0.08,0.192,0.128c1.248,1.28,2.752,2.256,4.368,3.056
		c0.288,0.144,0.496,0.4,0.784,0.528c1.936,0.832,4.064,1.312,6.304,1.312s4.368-0.48,6.304-1.312
		c0.288-0.128,0.496-0.384,0.768-0.528c1.616-0.816,3.136-1.776,4.384-3.072c0.048-0.064,0.128-0.08,0.192-0.128l64-67.888
		C513.7,212.552,513.412,202.424,506.98,196.36z"/>
</g>
<g>
</g>
<g>
</g>
<g>
</g>
<g>
</g>
<g>
</g>
<g>
</g>
<g>
</g>
<g>
</g>
<g>
</g>
<g>
</g>
<g>
</g>
<g>
</g>
<g>
</g>
<g>
</g>
<g>
</g>
</svg>
