<?xml version="1.0" encoding="iso-8859-1"?>
<!-- Generator: Adobe Illustrator 19.0.0, SVG Export Plug-In . SVG Version: 6.00 Build 0)  -->
<svg version="1.1" id="Layer_1" xmlns="http://www.w3.org/2000/svg" xmlns:xlink="http://www.w3.org/1999/xlink" x="0px" y="0px"
	 viewBox="0 0 448 448" style="enable-background:new 0 0 448 448;" xml:space="preserve">
<linearGradient id="SVGID_1_" gradientUnits="userSpaceOnUse" x1="-61.9375" y1="583.3125" x2="-61.9375" y2="609.3125" gradientTransform="matrix(16 0 0 -16 1215 9765)">
	<stop  offset="0" style="stop-color:#4DC3FF"/>
	<stop  offset="1" style="stop-color:#4DE1FF"/>
</linearGradient>
<path style="fill:url(#SVGID_1_);" d="M16,336V112c0-53.024,42.976-96,96-96h224c53.024,0,96,42.976,96,96v224
	c0,53.024-42.976,96-96,96H112C58.976,432,16,389.024,16,336z"/>
<path style="fill:#297BCC;" d="M336,0H112C50.144,0.016,0.016,50.144,0,112v224c0.016,61.856,50.144,111.984,112,112h224
	c61.856-0.016,111.984-50.144,112-112V112C447.984,50.144,397.856,0.016,336,0z M416,336c-0.08,44.176-35.824,79.92-80,80H112
	c-44.176-0.08-79.92-35.824-80-80V112c0.08-44.176,35.824-79.92,80-80h224c44.176,0.08,79.92,35.824,80,80V336z"/>
<g>
</g>
<g>
</g>
<g>
</g>
<g>
</g>
<g>
</g>
<g>
</g>
<g>
</g>
<g>
</g>
<g>
</g>
<g>
</g>
<g>
</g>
<g>
</g>
<g>
</g>
<g>
</g>
<g>
</g>
</svg>
