<?xml version="1.0" encoding="iso-8859-1"?>
<!-- Generator: Adobe Illustrator 19.0.0, SVG Export Plug-In . SVG Version: 6.00 Build 0)  -->
<svg version="1.1" id="Layer_1" xmlns="http://www.w3.org/2000/svg" xmlns:xlink="http://www.w3.org/1999/xlink" x="0px" y="0px"
	 viewBox="0 0 448 448" style="enable-background:new 0 0 448 448;" xml:space="preserve">
<linearGradient id="SVGID_1_" gradientUnits="userSpaceOnUse" x1="-61.9375" y1="583.3125" x2="-61.9375" y2="609.3125" gradientTransform="matrix(16 0 0 -16 1215 9765)">
	<stop  offset="0" style="stop-color:#4DC3FF"/>
	<stop  offset="1" style="stop-color:#4DE1FF"/>
</linearGradient>
<rect x="16" y="16" style="fill:url(#SVGID_1_);" width="416" height="416"/>
<path style="fill:#297BCC;" d="M443.312,4.688C440.336,1.712,436.208,0,432,0H16C11.792,0,7.664,1.712,4.688,4.688S0,11.792,0,16
	v416c0,4.208,1.712,8.336,4.688,11.312S11.792,448,16,448h416c4.208,0,8.336-1.712,11.312-4.688S448,436.208,448,432V16
	C448,11.792,446.288,7.664,443.312,4.688z M416,416H32V32h384V416z"/>
<g>
</g>
<g>
</g>
<g>
</g>
<g>
</g>
<g>
</g>
<g>
</g>
<g>
</g>
<g>
</g>
<g>
</g>
<g>
</g>
<g>
</g>
<g>
</g>
<g>
</g>
<g>
</g>
<g>
</g>
</svg>
