<?xml version="1.0" encoding="iso-8859-1"?>
<!-- Generator: Adobe Illustrator 19.0.0, SVG Export Plug-In . SVG Version: 6.00 Build 0)  -->
<svg version="1.1" id="Layer_1" xmlns="http://www.w3.org/2000/svg" xmlns:xlink="http://www.w3.org/1999/xlink" x="0px" y="0px"
	 viewBox="0 0 509.491 509.491" style="enable-background:new 0 0 509.491 509.491;" xml:space="preserve">
<linearGradient id="SVGID_1_" gradientUnits="userSpaceOnUse" x1="-31.1917" y1="612.8361" x2="-31.1917" y2="641.2191" gradientTransform="matrix(16 0 0 -16 753.8129 10287.1816)">
	<stop  offset="0" style="stop-color:#4DC3FF"/>
	<stop  offset="1" style="stop-color:#4DE1FF"/>
</linearGradient>
<polygon style="fill:url(#SVGID_1_);" points="254.746,404.221 107.178,481.805 135.37,317.501 15.994,201.149 180.97,177.165 
	254.746,27.677 328.522,177.165 493.498,201.149 374.122,317.501 402.314,481.805 "/>
<path style="fill:#297BCC;" d="M508.714,196.205c-1.872-5.776-6.912-10.016-12.912-10.896l-156.64-22.768L269.098,20.589
	c-2.688-5.44-8.272-8.912-14.352-8.912c-6.08,0-11.664,3.472-14.352,8.912L170.33,162.541L13.69,185.309
	c-6.016,0.88-11.04,5.12-12.912,10.896s-0.304,12.16,4.048,16.4L118.17,323.069L91.402,479.085
	c-1.024,5.984,1.456,12.08,6.368,15.648s11.472,4.048,16.848,1.216l140.128-73.648l140.112,73.68
	c5.376,2.832,11.936,2.352,16.848-1.216s7.392-9.664,6.368-15.648l-26.768-156.016L504.65,212.637
	C509.018,208.381,510.586,201.981,508.714,196.205z M362.954,306.045c-3.76,3.664-5.488,8.992-4.608,14.16l22.704,132.352
	l-118.864-62.496c-4.64-2.448-10.256-2.448-14.896,0l-118.864,62.496l22.704-132.352c0.88-5.168-0.848-10.512-4.608-14.16
	l-96.16-93.712l132.88-19.312c5.184-0.752,9.728-4.048,12.048-8.752l59.456-120.448l59.44,120.432c2.32,4.704,6.864,8,12.048,8.752
	l132.88,19.328L362.954,306.045z"/>
<g>
</g>
<g>
</g>
<g>
</g>
<g>
</g>
<g>
</g>
<g>
</g>
<g>
</g>
<g>
</g>
<g>
</g>
<g>
</g>
<g>
</g>
<g>
</g>
<g>
</g>
<g>
</g>
<g>
</g>
</svg>
