<?xml version="1.0" encoding="iso-8859-1"?>
<!-- Generator: Adobe Illustrator 19.0.0, SVG Export Plug-In . SVG Version: 6.00 Build 0)  -->
<svg version="1.1" id="Layer_1" xmlns="http://www.w3.org/2000/svg" xmlns:xlink="http://www.w3.org/1999/xlink" x="0px" y="0px"
	 viewBox="0 0 508.575 508.575" style="enable-background:new 0 0 508.575 508.575;" xml:space="preserve">
<linearGradient id="SVGID_1_" gradientUnits="userSpaceOnUse" x1="-31.6581" y1="611.6999" x2="-31.6581" y2="641.4849" gradientTransform="matrix(16 0 0 -16 760.8096 10279.749)">
	<stop  offset="0" style="stop-color:#4DC4FF"/>
	<stop  offset="1" style="stop-color:#4DE1FF"/>
</linearGradient>
<path style="fill:url(#SVGID_1_);" d="M17.879,380.599C190.983,270.983,59.127,111.047,238.775,15.991l251.904,111.968
	c-173.104,109.616-41.248,269.552-220.912,364.592L17.879,380.599z"/>
<path style="fill:#297BCC;" d="M497.191,113.351L245.271,1.383c-4.496-2-9.632-1.824-13.984,0.48
	c-47.248,24.88-75.712,55.504-92.672,88.416c-25.392,49.456-26.336,101.216-37.712,148.16
	c-11.504,47.104-30.352,89.44-91.584,128.64c-5.008,3.168-7.824,8.784-7.392,14.688s4.048,11.04,9.456,13.456l251.904,111.968
	c4.496,2,9.632,1.824,13.984-0.48c47.264-24.88,75.712-55.52,92.688-88.416c25.392-49.456,26.336-101.216,37.712-148.16
	c11.504-47.104,30.352-89.44,91.584-128.64c5.008-3.168,7.824-8.784,7.392-14.688S502.599,115.751,497.191,113.351z
	 M393.879,211.079c-23.776,51.792-24.544,104.016-36.4,149.28c-5.84,22.72-14.048,43.664-28.352,63.2
	c-13.28,18.096-32.08,35.232-60.176,51.136L50.007,377.367c31.472-24.656,51.76-51.904,64.672-79.888
	c23.776-51.792,24.544-104.016,36.4-149.28c5.84-22.72,14.048-43.664,28.336-63.2c13.28-18.096,32.08-35.232,60.176-51.136
	l218.96,97.312C427.079,155.847,406.791,183.095,393.879,211.079z"/>
<g>
</g>
<g>
</g>
<g>
</g>
<g>
</g>
<g>
</g>
<g>
</g>
<g>
</g>
<g>
</g>
<g>
</g>
<g>
</g>
<g>
</g>
<g>
</g>
<g>
</g>
<g>
</g>
<g>
</g>
</svg>
