<?xml version="1.0" encoding="iso-8859-1"?>
<!-- Generator: Adobe Illustrator 19.0.0, SVG Export Plug-In . SVG Version: 6.00 Build 0)  -->
<svg version="1.1" id="Layer_1" xmlns="http://www.w3.org/2000/svg" xmlns:xlink="http://www.w3.org/1999/xlink" x="0px" y="0px"
	 viewBox="0 0 512.004 512.004" style="enable-background:new 0 0 512.004 512.004;" xml:space="preserve">
<linearGradient id="SVGID_1_" gradientUnits="userSpaceOnUse" x1="-29.9355" y1="613.3165" x2="-29.9355" y2="633.3165" gradientTransform="matrix(16 0 0 -16 734.97 10309.0684)">
	<stop  offset="0" style="stop-color:#4DC4FF"/>
	<stop  offset="1" style="stop-color:#4DE1FF"/>
</linearGradient>
<polygon style="fill:url(#SVGID_1_);" points="32.002,496.004 256.002,496.004 480.002,176.004 256.002,176.004 "/>
<g>
	<rect x="16.002" y="448.004" style="fill:#297BCC;" width="32" height="48"/>
	<path style="fill:#297BCC;" d="M480.002,160.004h-64h-160h-48v32h17.264L18.898,486.836c-3.424,4.896-3.84,11.264-1.088,16.56
		s8.224,8.608,14.192,8.608l0,0h224c5.248,0,10.096-2.528,13.104-6.832l224-320c3.424-4.896,3.84-11.264,1.088-16.56
		S485.97,160.004,480.002,160.004z M247.666,480.004H62.738l201.6-288h184.944L247.666,480.004z"/>
	<rect x="112.002" y="160.004" style="fill:#297BCC;" width="64" height="32"/>
	<polygon style="fill:#297BCC;" points="48.002,192.004 80.002,192.004 80.002,160.004 80.002,160.004 16.002,160.004 
		16.002,208.004 48.002,208.004 	"/>
	<rect x="16.002" y="256.004" style="fill:#297BCC;" width="32" height="64"/>
	<rect x="16.002" y="352.004" style="fill:#297BCC;" width="32" height="64"/>
	<path style="fill:#297BCC;" d="M491.314,91.316c1.472-1.472,2.64-3.232,3.44-5.168c0.816-1.936,1.248-4.032,1.248-6.144
		s-0.432-4.208-1.232-6.144c-0.8-1.92-1.952-3.632-3.392-5.088c-0.016-0.016-0.032-0.064-0.048-0.08l-64-64
		c-6.256-6.256-16.384-6.256-22.624,0c-6.256,6.256-6.256,16.384,0,22.624l0,0l36.672,36.688H288.002c-8.832,0-16,7.168-16,16
		s7.168,16,16,16h153.376l-36.688,36.688c-6.256,6.256-6.256,16.384,0,22.624c3.12,3.12,7.216,4.688,11.312,4.688
		s8.192-1.568,11.312-4.688L491.314,91.316z"/>
</g>
<g>
</g>
<g>
</g>
<g>
</g>
<g>
</g>
<g>
</g>
<g>
</g>
<g>
</g>
<g>
</g>
<g>
</g>
<g>
</g>
<g>
</g>
<g>
</g>
<g>
</g>
<g>
</g>
<g>
</g>
</svg>
