<?xml version="1.0" encoding="iso-8859-1"?>
<!-- Generator: Adobe Illustrator 19.0.0, SVG Export Plug-In . SVG Version: 6.00 Build 0)  -->
<svg version="1.1" id="Layer_1" xmlns="http://www.w3.org/2000/svg" xmlns:xlink="http://www.w3.org/1999/xlink" x="0px" y="0px"
	 viewBox="0 0 512 512" style="enable-background:new 0 0 512 512;" xml:space="preserve">
<linearGradient id="SVGID_1_" gradientUnits="userSpaceOnUse" x1="-34.9375" y1="623.3125" x2="-34.9375" y2="643.3125" gradientTransform="matrix(16 0 0 -16 735 10309)">
	<stop  offset="0" style="stop-color:#4DC4FF"/>
	<stop  offset="1" style="stop-color:#4DE1FF"/>
</linearGradient>
<polygon style="fill:url(#SVGID_1_);" points="176,176 336,176 336,16 16,16 16,336 176,336 "/>
<g>
	<path style="fill:#297BCC;" d="M352,16c0-4.208-1.712-8.336-4.688-11.312C344.336,1.712,340.208,0,336,0H16
		C11.792,0,7.664,1.712,4.688,4.688S0,11.792,0,16v320c0,4.208,1.712,8.336,4.688,11.312S11.792,352,16,352h144v64h32v-80V192h144
		h80v-32h-64V16z M320,160H176c-4.208,0-8.336,1.712-11.312,4.688S160,171.792,160,176v144H32V32h288V160z"/>
	<polygon style="fill:#297BCC;" points="448,160 448,192 480,192 480,224 512,224 512,160 	"/>
	<rect x="480" y="256" style="fill:#297BCC;" width="32" height="64"/>
	<polygon style="fill:#297BCC;" points="480,480 448,480 448,512 512,512 512,448 480,448 	"/>
	<rect x="256" y="480" style="fill:#297BCC;" width="64" height="32"/>
	<rect x="352" y="480" style="fill:#297BCC;" width="64" height="32"/>
	<polygon style="fill:#297BCC;" points="192,448 160,448 160,512 224,512 224,480 224,480 192,480 	"/>
	<rect x="480" y="352" style="fill:#297BCC;" width="32" height="64"/>
</g>
<g>
</g>
<g>
</g>
<g>
</g>
<g>
</g>
<g>
</g>
<g>
</g>
<g>
</g>
<g>
</g>
<g>
</g>
<g>
</g>
<g>
</g>
<g>
</g>
<g>
</g>
<g>
</g>
<g>
</g>
</svg>
