<?xml version="1.0" encoding="iso-8859-1"?>
<!-- Generator: Adobe Illustrator 19.0.0, SVG Export Plug-In . SVG Version: 6.00 Build 0)  -->
<svg version="1.1" id="Layer_1" xmlns="http://www.w3.org/2000/svg" xmlns:xlink="http://www.w3.org/1999/xlink" x="0px" y="0px"
	 viewBox="0 0 512 512" style="enable-background:new 0 0 512 512;" xml:space="preserve">
<linearGradient id="SVGID_1_" gradientUnits="userSpaceOnUse" x1="-29.9375" y1="613.3125" x2="-29.9375" y2="643.3125" gradientTransform="matrix(16 0 0 -16 735 10309)">
	<stop  offset="0" style="stop-color:#4DC4FF"/>
	<stop  offset="1" style="stop-color:#4DE1FF"/>
</linearGradient>
<polygon style="fill:url(#SVGID_1_);" points="496,176 496,496 176,496 176,336 16,336 16,16 336,16 336,176 "/>
<path style="fill:#297BCC;" d="M507.312,164.688C504.336,161.712,500.208,160,496,160H352V16c0-4.208-1.712-8.336-4.688-11.312
	S340.208,0,336,0H16C11.792,0,7.664,1.712,4.688,4.688S0,11.792,0,16v320c0,4.208,1.712,8.336,4.688,11.312S11.792,352,16,352h144
	v144c0,4.208,1.712,8.336,4.688,11.312S171.792,512,176,512h320c4.208,0,8.336-1.712,11.312-4.688S512,500.208,512,496V176
	C512,171.792,510.288,167.664,507.312,164.688z M480,480H192V336c0-4.208-1.712-8.336-4.688-11.312S180.208,320,176,320H32V32h288
	v144c0,4.208,1.712,8.336,4.688,11.312S331.792,192,336,192h144V480z"/>
<g>
</g>
<g>
</g>
<g>
</g>
<g>
</g>
<g>
</g>
<g>
</g>
<g>
</g>
<g>
</g>
<g>
</g>
<g>
</g>
<g>
</g>
<g>
</g>
<g>
</g>
<g>
</g>
<g>
</g>
</svg>
