<?xml version="1.0" encoding="iso-8859-1"?>
<!-- Generator: Adobe Illustrator 19.0.0, SVG Export Plug-In . SVG Version: 6.00 Build 0)  -->
<svg version="1.1" id="Layer_1" xmlns="http://www.w3.org/2000/svg" xmlns:xlink="http://www.w3.org/1999/xlink" x="0px" y="0px"
	 viewBox="0 0 512 512" style="enable-background:new 0 0 512 512;" xml:space="preserve">
<rect x="48" y="64" style="fill:#FFFFFF;" width="160" height="384"/>
<linearGradient id="SVGID_1_" gradientUnits="userSpaceOnUse" x1="-21.9375" y1="620.3125" x2="-21.9375" y2="636.3125" gradientTransform="matrix(16 0 0 -16 735 10309)">
	<stop  offset="0" style="stop-color:#4DC4FF"/>
	<stop  offset="1" style="stop-color:#4DE1FF"/>
</linearGradient>
<rect x="304" y="128" style="fill:url(#SVGID_1_);" width="160" height="256"/>
<path style="fill:#297BCC;" d="M480,240V128c0-4.208-1.712-8.336-4.688-11.312S468.208,112,464,112H304
	c-4.208,0-8.336,1.712-11.312,4.688S288,123.792,288,128v112h-64V64c0-4.208-1.712-8.336-4.688-11.312S212.208,48,208,48H48
	c-4.208,0-8.336,1.712-11.312,4.688S32,59.792,32,64v176H0v32h32v176c0,4.208,1.712,8.336,4.688,11.312S43.792,464,48,464l0,0h160
	c4.208,0,8.336-1.712,11.312-4.688S224,452.208,224,448V272h64v112c0,4.208,1.712,8.336,4.688,11.312S299.792,400,304,400l0,0h160
	c4.208,0,8.336-1.712,11.312-4.688S480,388.208,480,384V272h32v-32H480z M192,432H64V80h128V432z M448,368H320V144h128V368z"/>
<g>
</g>
<g>
</g>
<g>
</g>
<g>
</g>
<g>
</g>
<g>
</g>
<g>
</g>
<g>
</g>
<g>
</g>
<g>
</g>
<g>
</g>
<g>
</g>
<g>
</g>
<g>
</g>
<g>
</g>
</svg>
